<svg width="31" height="31" viewBox="0 0 31 31" fill="none" xmlns="http://www.w3.org/2000/svg">
<path d="M15.0203 0.88562C15.4909 0.88562 15.9567 0.88562 16.4273 0.88562C16.9883 0.994953 17.5635 1.0615 18.1101 1.21837C22.0556 2.32121 24.6796 5.89117 24.5703 9.99353C24.556 10.5022 24.4752 11.0156 24.4229 11.5242C24.4277 11.5242 24.4324 11.5384 24.4419 11.5384C24.518 11.5622 24.5893 11.586 24.6653 11.6098C27.5793 12.6555 29.5188 14.6426 30.3982 17.6278C30.5551 18.165 30.6169 18.7307 30.7214 19.2868V20.6939C30.6644 21.0266 30.6121 21.3641 30.5503 21.6969C29.552 26.9734 23.9951 30.1536 18.9277 28.3282C18.1672 28.0525 17.4541 27.6389 16.6983 27.2776C16.6983 27.2776 16.665 27.3157 16.627 27.3632C15.3578 28.9984 13.7416 30.106 11.7308 30.6147C11.2507 30.7335 10.7563 30.7953 10.2714 30.8856H8.86436C8.64569 30.8476 8.42703 30.8143 8.20836 30.7715C4.59087 30.0965 2.20931 28.0002 1.08271 24.5063C0.897319 23.9406 0.840276 23.3321 0.721436 22.7427C0.721436 22.2721 0.721436 21.8062 0.721436 21.3356C0.764218 21.0599 0.79274 20.7747 0.849783 20.5037C1.63888 16.8482 3.83029 14.4904 7.41451 13.4256C7.49532 13.4019 7.57138 13.3733 7.6617 13.3448C6.88686 11.7143 6.66344 10.0316 6.99144 8.30124C7.66645 4.69801 9.79131 2.34498 13.2805 1.23739C13.8414 1.0615 14.4403 0.999707 15.0203 0.88562V0.88562ZM18.4286 11.8094C18.4619 11.7999 18.5475 11.7571 18.6378 11.7333C19.3223 11.5527 20.0068 11.3531 20.7008 11.2152C20.9243 11.1677 21.0146 11.0964 21.0574 10.892C21.2047 10.2074 21.219 9.51817 21.1096 8.82889C20.5963 5.72004 17.4541 3.68074 14.3833 4.46033C10.6184 5.42056 9.02598 9.95074 11.379 12.9931C11.5597 13.226 11.7498 13.4019 12.054 13.4589C12.2917 13.5064 12.5246 13.5873 12.7433 13.6918C13.4088 14.0056 14.0696 14.3336 14.7493 14.6663C14.9775 14.4001 15.2342 14.1006 15.4338 13.8677C15.3245 13.7156 15.1819 13.6015 15.1486 13.4637C15.0726 13.1166 14.8396 13.1309 14.5782 13.1452C14.4546 13.1499 14.3072 13.1689 14.2027 13.1166C14.0315 13.0263 13.8319 12.9122 13.7511 12.7554C13.5086 12.2705 13.8414 11.7904 14.4071 11.7809C15.0536 11.7714 15.6953 11.7809 16.3418 11.7809C16.8266 11.7809 17.0786 11.548 17.0786 11.1106C17.0786 10.6638 16.8219 10.4261 16.3228 10.4261C15.8617 10.4261 15.4053 10.4356 14.9442 10.4261C14.0886 10.4023 13.3423 9.8319 13.0903 9.01904C12.8241 8.15864 13.1046 7.20316 13.8319 6.73255C14.1789 6.50913 14.6067 6.40456 15.044 6.22392C15.1676 5.82937 15.3102 5.68676 15.6668 5.66299C16.1326 5.63447 16.356 5.90067 16.4321 6.33325C16.627 6.33325 16.8029 6.33325 16.9788 6.33325C17.4922 6.33325 17.7726 6.58044 17.7726 7.02252C17.7726 7.45035 17.4969 7.68803 16.993 7.68803C16.356 7.68803 15.7238 7.68327 15.0868 7.69278C14.602 7.70229 14.3548 7.95898 14.3643 8.41533C14.3738 8.82414 14.6305 9.05707 15.1011 9.06657C15.5907 9.07608 16.0756 9.06657 16.5652 9.08083C17.3876 9.10936 18.1577 9.68454 18.3383 10.4879C18.4334 10.911 18.4001 11.3626 18.4239 11.8047L18.4286 11.8094ZM14.3643 19.9856C14.331 23.9881 17.573 27.4915 21.9178 27.4773C26.0486 27.463 29.3857 24.0642 29.3619 19.9191C29.3381 15.7501 25.9678 12.4606 21.7466 12.4797C17.6538 12.4987 14.3358 15.8737 14.3595 19.9856H14.3643ZM9.61068 16.5535C9.33021 16.582 9.045 16.5963 8.76929 16.6343C5.53684 17.1144 3.45 20.3421 4.33893 23.4843C5.06623 26.0655 7.50483 27.715 10.1954 27.4298C11.9447 27.2444 13.2805 26.3649 14.2264 24.8913C14.2835 24.801 14.312 24.6204 14.2597 24.5348C13.0903 22.5811 12.7718 20.48 13.1569 18.26C13.1949 18.0366 13.1331 17.9225 12.9762 17.7942C11.997 16.9956 10.8846 16.5678 9.61543 16.5535H9.61068ZM14.7541 25.3239C12.653 28.428 8.83584 28.8748 6.19283 27.1445C3.54032 25.4047 2.66091 21.8157 4.22009 19.0254C4.99968 17.6278 6.15956 16.6628 7.68547 16.178C9.75804 15.522 11.6642 15.9355 13.3993 17.219C13.4706 17.0336 13.5276 16.8672 13.5942 16.7056C13.6607 16.544 13.7178 16.3729 13.8129 16.2303C13.965 16.0021 13.8889 15.8832 13.6798 15.7501C11.9019 14.614 9.98621 14.2575 7.91839 14.6996C3.91586 15.5552 1.30138 19.7242 2.27586 23.6982C3.31215 27.9241 7.405 30.3627 11.6024 29.2266C13.2947 28.7703 14.6495 27.791 15.7096 26.3935C15.3863 26.0322 15.0773 25.6804 14.7588 25.3191L14.7541 25.3239ZM23.0967 11.1819C23.1394 10.7303 23.2107 10.3168 23.2107 9.89845C23.2107 9.4326 23.1822 8.962 23.1062 8.5009C22.4216 4.36051 18.4904 1.59391 14.369 2.35924C9.61068 3.24341 6.80605 8.31075 8.95468 12.9693C8.98795 13.0453 9.08303 13.1404 9.15433 13.1404C9.63444 13.1547 10.1193 13.1499 10.5947 13.1499C8.7883 10.3168 9.66772 7.24594 11.1556 5.62496C12.8526 3.77581 15.5099 3.05802 17.8392 3.99448C21.0241 5.27795 22.1364 7.78785 21.7894 11.1011C22.1982 11.1249 22.626 11.1534 23.0967 11.1819Z" fill="#2FBE92"/>
<path d="M21.8464 26.113C18.3383 26.0749 15.6858 23.3369 15.7238 19.7859C15.7618 16.5012 18.5712 13.8011 21.9272 13.8344C25.3546 13.8677 28.0356 16.6438 27.9833 20.1044C27.9358 23.4462 25.174 26.151 21.8417 26.113H21.8464ZM16.4131 19.9713C16.4131 22.9518 18.8469 25.4237 21.7941 25.4332C24.8174 25.4427 27.3083 22.9994 27.3178 20.0093C27.3321 16.9908 24.884 14.5379 21.8607 14.5284C18.8517 14.5189 16.4131 16.9575 16.4083 19.9713H16.4131Z" fill="#2FBE92"/>
<path d="M10.3095 25.4332C10.1241 25.9656 9.94347 26.1225 9.54892 26.1082C9.18289 26.0939 9.00701 25.9276 8.87391 25.4379C8.48411 25.4379 8.08481 25.4379 7.68551 25.4379C7.18162 25.4379 6.91067 25.2478 6.86789 24.8723C6.8156 24.4207 7.00099 24.183 7.51438 24.0499V20.0236C6.97247 19.8049 6.84887 19.6623 6.86313 19.2583C6.87739 18.8875 7.07704 18.6546 7.45733 18.6355C7.85664 18.6118 8.25594 18.6355 8.65524 18.6118C8.74556 18.6118 8.87866 18.5357 8.90718 18.4644C9.04979 18.0889 9.22567 17.9368 9.58219 17.9415C9.93871 17.9415 10.1431 18.1079 10.2525 18.4739C10.2667 18.5167 10.2762 18.5642 10.2905 18.6165C10.9227 18.6403 11.4599 18.859 11.8497 19.3628C12.3155 19.9618 12.4439 20.6225 12.1586 21.3403C12.0683 21.5733 12.0588 21.7111 12.287 21.8918C12.9382 22.4147 13.1426 23.2988 12.8622 24.0927C12.5817 24.8865 11.8639 25.4094 11.0225 25.4379C10.7801 25.4475 10.5377 25.4379 10.3 25.4379L10.3095 25.4332ZM8.91194 24.0547C9.03078 24.0642 9.10683 24.0737 9.18289 24.0737C9.79611 24.0737 10.4093 24.0879 11.0225 24.0547C11.4218 24.0356 11.6262 23.7647 11.6215 23.3701C11.6167 22.9708 11.3933 22.7189 10.9655 22.7046C10.3428 22.6809 9.72005 22.6904 9.09257 22.7046C9.03078 22.7046 8.91669 22.8045 8.91669 22.8615C8.90243 23.2513 8.90718 23.6363 8.90718 24.0594L8.91194 24.0547ZM8.92144 21.3308C9.42533 21.3308 9.89118 21.3451 10.357 21.3308C10.704 21.3166 10.9322 21.0504 10.9465 20.6891C10.9607 20.3468 10.7563 20.0236 10.4426 20.0046C9.93872 19.9761 9.43483 19.9951 8.92144 19.9951V21.3356V21.3308Z" fill="#2FBE92"/>
<path d="M24.5846 19.2964C23.824 19.6767 23.0824 20.0189 22.3694 20.4135C22.0081 20.6131 21.7229 20.6226 21.3569 20.4135C20.6438 20.0142 19.9023 19.6767 19.1322 19.2916C20.0449 18.1508 20.9433 17.0289 21.8608 15.8833C22.7687 17.0147 23.6624 18.1318 24.5893 19.2916L24.5846 19.2964Z" fill="#2FBE92"/>
<path d="M24.5133 20.0902C23.6338 21.407 22.7544 22.7237 21.8608 24.069C20.9576 22.7142 20.0781 21.3927 19.1987 20.076C19.2082 20.0617 19.2225 20.0475 19.232 20.0332C19.6218 20.2233 20.0116 20.4182 20.3966 20.6084C20.8245 20.8223 21.2475 21.0457 21.6801 21.2406C21.7847 21.2882 21.9463 21.2882 22.0461 21.2406C22.8257 20.8651 23.6006 20.4753 24.3754 20.0902C24.4087 20.076 24.442 20.0617 24.4752 20.0475C24.4895 20.0617 24.5038 20.076 24.5133 20.0902Z" fill="#2FBE92"/>
</svg>
