<svg width="43" height="22" viewBox="0 0 43 22" fill="none" xmlns="http://www.w3.org/2000/svg">
<path d="M28.3603 6.41846C29.9864 5.43888 31.5618 4.49698 33.1991 3.51203C32.9572 3.43129 32.794 3.38285 32.5465 3.30212C32.9853 3.22676 33.3286 3.16218 33.7674 3.08683C33.3454 2.96303 33.0078 2.86615 32.6702 2.76389C32.6702 2.73698 32.6702 2.71545 32.6702 2.68854C33.728 2.5163 34.7802 2.34945 35.8774 2.17184C35.838 1.80046 35.8042 1.46138 35.7592 1.01465C36.0968 1.3322 36.3613 1.6067 36.6539 1.84352C36.8001 1.96193 37.0027 2.01037 37.1771 2.0911C37.3909 2.19337 37.6441 2.25795 37.8073 2.40866C39.1408 3.67349 40.463 4.95986 41.7853 6.24084C42.0272 6.47228 42.3029 6.67681 42.151 7.08048C41.9766 7.54335 41.7628 7.96855 41.2114 8.08158C40.9807 8.13002 40.6881 8.15155 40.4912 8.06005C39.5121 7.61332 38.4543 7.57565 37.4134 7.40341C36.8677 7.31191 36.3331 7.14506 35.6973 6.9836C34.7802 8.16231 33.8012 9.411 32.8334 10.6651C32.7659 10.7566 32.7321 10.8804 32.7096 10.9934C32.3158 12.9741 31.1848 14.3788 29.2155 15.1485C29.0467 15.2131 28.8836 15.3746 28.7935 15.5307C27.612 17.5006 26.4416 19.4705 25.2826 21.4512C25.1363 21.6987 24.9787 21.7956 24.6749 21.7902C23.1501 21.7741 21.6253 21.7902 20.1005 21.7795C19.3859 21.7795 18.9414 21.4027 18.9414 20.8214C18.9414 20.3263 19.2734 19.9334 19.8079 19.8903C20.365 19.8472 20.9332 19.8634 21.4959 19.858C22.1823 19.858 22.8688 19.8634 23.5552 19.8472C23.679 19.8472 23.8703 19.7665 23.9041 19.6804C24.4498 18.2541 24.9731 16.8224 25.5189 15.3477C25.0125 15.2346 24.5342 15.1377 24.0616 15.0301C22.0079 14.5672 20.0499 13.8783 18.2437 12.8234C18.1312 12.7588 17.9174 12.7373 17.8105 12.7965C15.965 13.8514 14.1251 14.9225 12.1389 16.1496C12.2852 16.2196 12.454 16.2626 12.5722 16.3649C13.9619 17.5759 15.3461 18.7977 16.7302 20.0141C17.034 20.2832 17.2141 20.5954 17.1128 20.9937C16.9271 21.7472 16.0269 21.9732 15.3911 21.4189C13.9901 20.1971 12.6003 18.9645 11.2049 17.7374C10.5804 17.1884 9.95582 16.6394 9.31439 16.0796C10.299 14.5995 11.2724 13.1409 12.2627 11.6554C11.3962 10.6812 11.1036 9.55094 11.3737 8.2592C10.3159 8.30225 9.47756 8.67363 8.9149 9.5025C8.59982 9.96 8.341 10.4552 8.09343 10.9503C7.77834 11.5747 7.30571 11.8707 6.55738 11.833C5.70214 11.79 4.84127 11.8223 3.96916 11.7415C4.34614 11.5747 4.72312 11.4024 5.19575 11.1872C3.48527 10.7996 1.86482 10.4336 0.25 10.0676C0.25 10.0407 0.255627 10.0192 0.261253 9.99229C1.56099 9.99229 2.8551 9.96 4.14921 10.0031C4.93693 10.03 5.54459 9.83082 6.07912 9.2603C7.09753 8.1677 8.45353 7.75864 9.94457 7.68329C10.4116 7.66176 10.8786 7.66176 11.34 7.6187C11.4694 7.60794 11.6438 7.51106 11.7113 7.40341C12.5609 6.03631 13.7931 5.35815 15.4642 5.43888C17.276 5.525 19.0821 5.62188 20.8939 5.69185C21.1302 5.70261 21.4059 5.62188 21.6084 5.49809C22.8181 4.74995 23.9885 3.94799 25.2207 3.23215C25.592 3.01686 26.1097 2.96303 26.5542 2.96842C27.325 2.97918 27.882 3.53894 28.0058 4.29246C28.124 4.97601 28.2365 5.66494 28.3603 6.41307V6.41846Z" fill="#2FBE92"/>
<path d="M34.3586 18.3994C33.3739 19.1261 32.3668 19.7719 31.489 20.5524C30.7182 21.2359 29.9698 21.4081 29.0415 20.956C28.8108 20.843 28.5407 20.8215 28.2988 20.7354C27.7924 20.5524 27.5392 20.0303 27.7023 19.5459C27.8599 19.0884 28.4113 18.7331 28.8727 18.9538C30.0824 19.5405 30.69 18.6578 31.489 18.1088C30.8588 17.3983 30.2455 16.6986 29.6266 16.0043C30.2174 15.676 30.7857 15.3585 31.3709 15.0355C32.3443 16.1335 33.3289 17.2423 34.3586 18.3994Z" fill="#2FBE92"/>
<path d="M19.645 14.5833C18.7335 15.1162 17.8614 15.6221 16.9499 16.1549C18.2778 17.0753 19.5775 17.9742 20.8772 18.873C20.022 18.9483 19.1611 18.8515 18.4803 19.5727C16.9049 18.4693 15.3407 17.3767 13.7034 16.2357C14.1591 15.9666 14.4911 15.7728 14.8231 15.579C15.7852 15.0193 16.7473 14.4649 17.7039 13.8998C17.8952 13.7867 18.0414 13.7598 18.2553 13.8782C18.6885 14.1258 19.1443 14.3357 19.6394 14.5833H19.645Z" fill="#2FBE92"/>
<path d="M29.8066 0.0404053C30.8419 0.0404053 31.6915 0.869276 31.6802 1.85962C31.669 2.84996 30.8081 3.66268 29.7784 3.6573C28.7431 3.65191 27.9104 2.82843 27.916 1.8327C27.9217 0.8316 28.7657 0.0404053 29.8066 0.0404053Z" fill="#2FBE92"/>
</svg>
