<svg width="28" height="28" viewBox="0 0 28 28" fill="none" xmlns="http://www.w3.org/2000/svg">
<path fill-rule="evenodd" clip-rule="evenodd" d="M7.44458 0.363892C5.64754 0.363892 3.9241 1.07776 2.6534 2.34846C1.3827 3.61917 0.668823 5.34261 0.668823 7.13965V20.6912C0.668823 22.4882 1.3827 24.2116 2.6534 25.4823C3.9241 26.753 5.64754 27.4669 7.44458 27.4669H20.9961C22.7931 27.4669 24.5166 26.753 25.7873 25.4823C27.058 24.2116 27.7719 22.4882 27.7719 20.6912V7.13965C27.7719 5.34261 27.058 3.61917 25.7873 2.34846C24.5166 1.07776 22.7931 0.363892 20.9961 0.363892H7.44458ZM19.2751 12.132C19.3968 12.0021 19.4917 11.8495 19.5545 11.6829C19.6172 11.5163 19.6465 11.339 19.6407 11.161C19.635 10.9831 19.5942 10.808 19.5207 10.6459C19.4473 10.4837 19.3426 10.3376 19.2127 10.2158C19.0828 10.0941 18.9302 9.99917 18.7636 9.93643C18.597 9.87368 18.4196 9.84437 18.2417 9.85016C18.0638 9.85594 17.8887 9.89672 17.7266 9.97016C17.5644 10.0436 17.4183 10.1483 17.2965 10.2782L13.1186 14.7366L11.0547 12.9031C10.7843 12.6783 10.4371 12.5674 10.0864 12.5939C9.7358 12.6203 9.40917 12.7821 9.17555 13.0449C8.94193 13.3077 8.81962 13.651 8.83446 14.0024C8.84929 14.3537 9.00012 14.6855 9.25506 14.9277L12.3042 17.638C12.568 17.8724 12.9128 17.9946 13.2654 17.9786C13.6179 17.9627 13.9503 17.8098 14.1919 17.5526L19.2737 12.132H19.2751Z" fill="#2FBE92"/>
</svg>
