<svg width="41" height="41" viewBox="0 0 41 41" fill="none" xmlns="http://www.w3.org/2000/svg">
<circle cx="20.469" cy="20.6248" r="19.5" fill="#2FBE92" stroke="#13EAA8"/>
<path d="M26.469 25.8506V28.8975H14.5627V26.3193L20.0471 20.5537C20.5315 19.999 20.9221 19.5029 21.219 19.0654C21.5159 18.6201 21.7307 18.2178 21.8635 17.8584C22.0042 17.499 22.0745 17.1748 22.0745 16.8857C22.0745 16.3936 22.0002 15.9834 21.8518 15.6553C21.7112 15.3193 21.5002 15.0654 21.219 14.8936C20.9456 14.7217 20.6057 14.6357 20.1995 14.6357C19.7932 14.6357 19.4377 14.7529 19.1331 14.9873C18.8284 15.2217 18.5901 15.542 18.4182 15.9482C18.2542 16.3545 18.1721 16.8115 18.1721 17.3193H14.2112C14.2112 16.2725 14.4651 15.3154 14.9729 14.4482C15.4885 13.5811 16.2034 12.8896 17.1174 12.374C18.0315 11.8506 19.0901 11.5889 20.2932 11.5889C21.551 11.5889 22.6057 11.7842 23.4573 12.1748C24.3088 12.5654 24.9495 13.1318 25.3792 13.874C25.8167 14.6084 26.0354 15.4951 26.0354 16.5342C26.0354 17.1279 25.9417 17.6982 25.7542 18.2451C25.5667 18.792 25.2971 19.335 24.9456 19.874C24.594 20.4053 24.1643 20.9521 23.6565 21.5146C23.1565 22.0771 22.5862 22.6748 21.9456 23.3076L19.7424 25.8506H26.469Z" fill="white"/>
</svg>
