<svg width="41" height="41" viewBox="0 0 41 41" fill="none" xmlns="http://www.w3.org/2000/svg">
<circle cx="20.9231" cy="20.72" r="19.5" fill="#2FBE92" stroke="#13EAA8"/>
<path d="M26.8645 24.2935C26.8645 25.3794 26.6067 26.2896 26.0911 27.0239C25.5833 27.7583 24.8801 28.3091 23.9817 28.6763C23.0911 29.0435 22.0754 29.2271 20.9348 29.2271C19.802 29.2271 18.7825 29.0435 17.8762 28.6763C16.9778 28.3091 16.2668 27.7583 15.7434 27.0239C15.22 26.2896 14.9583 25.3794 14.9583 24.2935C14.9583 23.5513 15.1067 22.8872 15.4036 22.3013C15.7083 21.7075 16.1301 21.2036 16.6692 20.7896C17.2083 20.3755 17.8372 20.0591 18.5559 19.8403C19.2825 19.6216 20.0676 19.5122 20.9114 19.5122C22.052 19.5122 23.0715 19.7075 23.97 20.0981C24.8684 20.481 25.5754 21.0278 26.0911 21.7388C26.6067 22.4497 26.8645 23.3013 26.8645 24.2935ZM22.8918 23.9771C22.8918 23.5083 22.8098 23.1138 22.6458 22.7935C22.4817 22.4653 22.2512 22.2153 21.9543 22.0435C21.6575 21.8716 21.3098 21.7856 20.9114 21.7856C20.5208 21.7856 20.1731 21.8716 19.8684 22.0435C19.5715 22.2153 19.3372 22.4653 19.1653 22.7935C19.0012 23.1138 18.9192 23.5083 18.9192 23.9771C18.9192 24.4302 19.0051 24.8247 19.177 25.1606C19.3489 25.4888 19.5833 25.7427 19.8801 25.9224C20.1848 26.0942 20.5364 26.1802 20.9348 26.1802C21.3333 26.1802 21.677 26.0942 21.9661 25.9224C22.2629 25.7427 22.4895 25.4888 22.6458 25.1606C22.8098 24.8247 22.8918 24.4302 22.8918 23.9771ZM26.5129 16.4888C26.5129 17.3794 26.2747 18.1606 25.7981 18.8325C25.3293 19.4966 24.6731 20.0161 23.8293 20.3911C22.9934 20.7583 22.0286 20.9419 20.9348 20.9419C19.8489 20.9419 18.8801 20.7583 18.0286 20.3911C17.1848 20.0161 16.5208 19.4966 16.0364 18.8325C15.5598 18.1606 15.3215 17.3794 15.3215 16.4888C15.3215 15.4419 15.5598 14.563 16.0364 13.8521C16.5208 13.1411 17.1848 12.6021 18.0286 12.2349C18.8723 11.8677 19.8333 11.6841 20.9114 11.6841C22.0051 11.6841 22.9739 11.8677 23.8176 12.2349C24.6614 12.6021 25.3215 13.1411 25.7981 13.8521C26.2747 14.563 26.5129 15.4419 26.5129 16.4888ZM22.5637 16.6997C22.5637 16.2935 22.5012 15.9458 22.3762 15.6567C22.2512 15.3599 22.0676 15.1333 21.8254 14.9771C21.5833 14.813 21.2786 14.731 20.9114 14.731C20.5598 14.731 20.2629 14.8091 20.0208 14.9653C19.7786 15.1216 19.595 15.3481 19.47 15.645C19.345 15.9341 19.2825 16.2856 19.2825 16.6997C19.2825 17.106 19.345 17.4614 19.47 17.7661C19.595 18.0708 19.7786 18.3091 20.0208 18.481C20.2708 18.6528 20.5754 18.7388 20.9348 18.7388C21.302 18.7388 21.6028 18.6528 21.8372 18.481C22.0793 18.3091 22.259 18.0708 22.3762 17.7661C22.5012 17.4614 22.5637 17.106 22.5637 16.6997Z" fill="white"/>
</svg>
