<svg width="25" height="25" viewBox="0 0 25 25" fill="none" xmlns="http://www.w3.org/2000/svg">
<path d="M12.6913 0.88562C19.3146 0.902403 24.6871 6.29821 24.6745 12.9066C24.6619 19.5192 19.3523 24.8814 12.7039 24.8856C6.02599 24.894 0.640894 19.5066 0.674473 12.8772C0.708051 6.23107 5.99242 0.940166 12.6913 0.88562ZM4.86755 17.9751V20.6269C4.90112 20.6479 4.93051 20.6688 4.96408 20.6898C5.13617 20.4674 5.30406 20.2451 5.49294 20.0017C7.23901 21.5583 9.21172 22.4688 11.4866 22.6367C13.77 22.8045 15.8812 22.259 17.7826 20.9542C20.5611 19.0493 21.8161 15.8437 21.749 13.8129C21.1068 17.5052 18.5423 20.329 15.0963 21.1597C11.8602 21.936 8.62411 20.673 6.9326 18.6381C7.12148 18.4367 7.31875 18.2311 7.558 17.9793H4.87174L4.86755 17.9751ZM17.7742 7.67863C17.8077 7.71639 17.8413 7.75415 17.8791 7.78772H20.494V5.09821C20.2422 5.33737 20.0365 5.53877 19.8308 5.73177C16.1246 2.44226 11.302 2.51779 8.04068 4.51919C4.89273 6.44926 3.558 9.84366 3.62096 11.7737C4.46881 8.0017 6.68077 5.41289 10.5926 4.57373C13.6314 3.92338 16.2505 4.87163 18.5507 7.19611C18.2652 7.37233 18.0176 7.52338 17.77 7.67443L17.7742 7.67863ZM12.8088 13.3388V10.1583C12.3597 10.1583 11.9441 10.1709 11.5328 10.1542C11.323 10.1458 11.2054 10.2213 11.0963 10.4017C10.6052 11.2157 10.1267 12.0381 9.59367 12.8227C9.28727 13.2674 9.13198 13.7164 9.21172 14.287H11.621V15.6045C11.9651 15.6045 12.2589 15.5961 12.5486 15.6045C12.7542 15.6129 12.834 15.529 12.8298 15.3276C12.8214 14.9877 12.8298 14.6521 12.8298 14.2996C13.0648 14.287 13.2663 14.2744 13.451 14.266V13.3388H12.813H12.8088ZM5.10259 11.4465C5.43418 11.3164 5.7154 11.1695 6.0176 11.094C6.38696 11.0017 6.76052 11.0395 7.01655 11.3667C7.27258 11.6898 7.23901 12.0632 7.03334 12.3947C6.83607 12.7136 6.60942 13.0199 6.34918 13.2884C5.93365 13.7164 5.50553 14.136 5.03964 14.501C4.65349 14.8031 4.64089 15.1514 4.71645 15.5835H8.53176V14.5514H6.4709C6.64299 14.4045 6.73533 14.329 6.82348 14.2493C7.44887 13.7164 8.07007 13.1751 8.33869 12.3695C8.64509 11.4507 8.27993 10.473 7.28518 10.1709C6.6346 9.97373 6.0092 10.0409 5.39221 10.2716C4.71644 10.5276 4.72064 10.5402 4.98087 11.1905C5.01445 11.2786 5.06062 11.3625 5.0984 11.4507L5.10259 11.4465ZM17.1068 15.6003C17.4762 15.6003 17.7742 15.5751 18.0638 15.6087C18.3534 15.6423 18.4919 15.5248 18.6136 15.273C19.2432 13.9472 19.877 12.6213 20.5318 11.3038C20.7206 10.9262 20.6787 10.5611 20.6619 10.1583H16.8759V11.2031H19.3607C18.5968 12.6926 17.8707 14.115 17.1068 15.6003ZM16.3975 9.9066C15.6503 9.76394 15.6042 9.78492 15.4111 10.4311C14.9452 12.0129 14.4751 13.5947 14.0134 15.1765C13.9462 15.4115 13.8917 15.6549 13.8287 15.8982C14.352 15.943 14.6822 15.7346 14.8193 15.273C15.1257 14.2535 15.4363 13.2339 15.7385 12.2101C15.9651 11.4465 16.1792 10.6786 16.3975 9.9066Z" fill="#2FBE92"/>
<path d="M11.6085 11.1906V13.3136H10.4165C10.8194 12.5961 11.2098 11.8996 11.6085 11.1906Z" fill="#2FBE92"/>
</svg>
