<svg width="41" height="41" viewBox="0 0 41 41" fill="none" xmlns="http://www.w3.org/2000/svg">
<circle cx="20.469" cy="20.72" r="19.5" fill="#2FBE92" stroke="#13EAA8"/>
<path d="M23.4573 11.6841H24.0901V14.7896H23.8792C23.1213 14.7896 22.4104 14.895 21.7463 15.106C21.0901 15.3169 20.512 15.6372 20.012 16.0669C19.5198 16.4888 19.1331 17.0239 18.8518 17.6724C18.5784 18.3208 18.4417 19.0825 18.4417 19.9575V22.9458C18.4417 23.4927 18.4885 23.9692 18.5823 24.3755C18.676 24.7817 18.8167 25.1177 19.0042 25.3833C19.1917 25.6489 19.4221 25.8481 19.6956 25.981C19.9768 26.1138 20.301 26.1802 20.6682 26.1802C20.9729 26.1802 21.2542 26.1099 21.512 25.9692C21.7698 25.8286 21.9924 25.6294 22.1799 25.3716C22.3752 25.1138 22.5237 24.813 22.6252 24.4692C22.7268 24.1255 22.7776 23.7505 22.7776 23.3442C22.7776 22.9067 22.7229 22.5122 22.6135 22.1606C22.5042 21.8091 22.3479 21.5122 22.1448 21.27C21.9495 21.02 21.7112 20.8325 21.4299 20.7075C21.1565 20.5747 20.8557 20.5083 20.5276 20.5083C20.0276 20.5083 19.6018 20.6216 19.2502 20.8481C18.9065 21.0669 18.6448 21.3481 18.4651 21.6919C18.2932 22.0356 18.2073 22.3833 18.2073 22.7349L17.2581 21.7739C17.2424 21.3052 17.3323 20.8208 17.5276 20.3208C17.7229 19.8208 18.0159 19.356 18.4065 18.9263C18.7971 18.4966 19.2854 18.1489 19.8713 17.8833C20.4573 17.6177 21.137 17.4849 21.9104 17.4849C22.6917 17.4849 23.3792 17.6333 23.9729 17.9302C24.5745 18.2271 25.0784 18.6411 25.4846 19.1724C25.8987 19.7036 26.2112 20.3247 26.4221 21.0356C26.6331 21.7466 26.7385 22.5161 26.7385 23.3442C26.7385 24.1802 26.5901 24.9575 26.2932 25.6763C26.0042 26.3872 25.594 27.0083 25.0627 27.5396C24.5315 28.0708 23.9026 28.4849 23.176 28.7817C22.4495 29.0786 21.6487 29.2271 20.7737 29.2271C19.8752 29.2271 19.0432 29.0747 18.2776 28.77C17.5198 28.4575 16.8557 28.0083 16.2854 27.4224C15.7229 26.8286 15.2815 26.106 14.9612 25.2544C14.6487 24.4028 14.4924 23.438 14.4924 22.3599V20.9185C14.4924 19.4575 14.7307 18.1567 15.2073 17.0161C15.6917 15.8755 16.3479 14.9106 17.176 14.1216C18.012 13.3247 18.969 12.7192 20.0471 12.3052C21.1252 11.8911 22.262 11.6841 23.4573 11.6841Z" fill="white"/>
</svg>
