<svg width="41" height="41" viewBox="0 0 41 41" fill="none" xmlns="http://www.w3.org/2000/svg">
<circle cx="20.9701" cy="20.6248" r="19.5" fill="#2FBE92" stroke="#13EAA8"/>
<path d="M18.6615 18.7139H20.5834C21.0756 18.7139 21.4779 18.6279 21.7904 18.4561C22.1107 18.2764 22.349 18.0264 22.5052 17.7061C22.6615 17.3779 22.7396 16.9912 22.7396 16.5459C22.7396 16.2021 22.6654 15.8857 22.517 15.5967C22.3763 15.3076 22.1576 15.0771 21.8607 14.9053C21.5638 14.7256 21.1849 14.6357 20.724 14.6357C20.4115 14.6357 20.1068 14.7021 19.8099 14.835C19.5131 14.96 19.267 15.1396 19.0717 15.374C18.8842 15.6084 18.7904 15.8936 18.7904 16.2295H14.8295C14.8295 15.2607 15.0951 14.4326 15.6263 13.7451C16.1654 13.0498 16.8724 12.5186 17.7474 12.1514C18.6302 11.7764 19.5795 11.5889 20.5951 11.5889C21.806 11.5889 22.8685 11.7764 23.7826 12.1514C24.6967 12.5186 25.4076 13.0654 25.9154 13.792C26.431 14.5107 26.6888 15.4014 26.6888 16.4639C26.6888 17.0498 26.5521 17.6006 26.2787 18.1162C26.0052 18.6318 25.6224 19.085 25.1302 19.4756C24.6381 19.8662 24.0599 20.1748 23.3959 20.4014C22.7396 20.6201 22.0209 20.7295 21.2396 20.7295H18.6615V18.7139ZM18.6615 21.6553V19.6865H21.2396C22.0912 19.6865 22.8685 19.7842 23.5717 19.9795C24.2748 20.167 24.8802 20.4482 25.3881 20.8232C25.8959 21.1982 26.2865 21.6631 26.5599 22.2178C26.8334 22.7646 26.9701 23.3936 26.9701 24.1045C26.9701 24.9014 26.8099 25.6123 26.4896 26.2373C26.1693 26.8623 25.7201 27.3896 25.142 27.8193C24.5638 28.249 23.8881 28.5771 23.1146 28.8037C22.3412 29.0225 21.5013 29.1318 20.5951 29.1318C19.8842 29.1318 19.1732 29.0381 18.4623 28.8506C17.7513 28.6553 17.1029 28.3584 16.517 27.96C15.931 27.5537 15.4584 27.0381 15.099 26.4131C14.7474 25.7803 14.5717 25.0264 14.5717 24.1514H18.5326C18.5326 24.5107 18.6302 24.8389 18.8256 25.1357C19.0287 25.4248 19.2982 25.6553 19.6342 25.8271C19.9701 25.999 20.3334 26.085 20.724 26.085C21.2084 26.085 21.6185 25.9951 21.9545 25.8154C22.2982 25.6279 22.5599 25.3779 22.7396 25.0654C22.9193 24.7529 23.0092 24.4053 23.0092 24.0225C23.0092 23.4443 22.9115 22.9834 22.7162 22.6396C22.5287 22.2959 22.2513 22.0459 21.8842 21.8896C21.5248 21.7334 21.0912 21.6553 20.5834 21.6553H18.6615Z" fill="white"/>
</svg>
