<svg width="31" height="28" viewBox="0 0 31 28" fill="none" xmlns="http://www.w3.org/2000/svg">
<path d="M30.7251 1.35471C30.7251 0.221622 30.57 0.0799867 29.4369 0.0799867C24.0547 0.0799867 18.6658 0.0799867 13.2837 0.0799867C9.45951 0.0732422 5.6286 0.0799867 1.79769 0.0732422C1.17719 0.0732422 0.725304 0.235112 0.718559 0.94329C0.711815 3.21621 0.711815 5.48912 0.718559 7.76878C0.718559 8.3623 1.02881 8.65232 1.63582 8.63883C2.37772 8.6186 3.11962 8.63883 3.86152 8.63883C4.90693 8.63883 5.01484 8.53092 5.01484 7.47202C5.01484 5.99496 5.01484 4.51116 5.01484 2.98689H26.4086C26.4086 3.26342 26.4086 3.48599 26.4086 3.7153C26.4086 5.06422 26.4153 6.40638 26.4086 7.75529C26.4086 8.3623 26.6649 8.65906 27.2854 8.64558C28.0475 8.63209 28.8164 8.64558 29.5853 8.64558C30.516 8.64558 30.7184 8.44324 30.7184 7.499C30.7184 5.4554 30.7184 3.4118 30.7184 1.37494L30.7251 1.35471ZM6.49864 4.36278C6.49864 4.64605 6.49864 4.84839 6.49864 5.05747C6.47167 11.8088 6.44469 18.5601 6.42446 25.3181C6.42446 26.667 6.88983 27.1594 8.26572 27.1661C13.2095 27.1796 18.1532 27.1796 23.097 27.1661C24.5943 27.1661 25.0192 26.7008 25.0192 25.1832C25.0259 18.4791 25.0394 11.7683 25.0462 5.06422C25.0462 4.84164 25.0259 4.61907 25.0125 4.36278H6.49864ZM14.8012 13.3128C15.0575 13.5826 15.5364 13.8524 16.231 14.1356C16.9257 14.4122 17.499 14.682 17.9442 14.9248C18.3893 15.1743 18.7737 15.4508 19.0772 15.7611C19.3875 16.0713 19.6236 16.4288 19.7854 16.8267C19.9473 17.2247 20.0282 17.69 20.0282 18.2228C20.0282 19.2143 19.718 20.0169 19.1042 20.6307C18.4837 21.2512 17.6339 21.6086 16.5548 21.7233V23.4634H15.1654V21.7368C13.9716 21.6086 13.0476 21.1837 12.3934 20.4688C11.7392 19.7471 11.4087 18.7961 11.4087 17.6023H13.9311C13.9311 18.297 14.093 18.8299 14.4235 19.1941C14.754 19.565 15.2261 19.7471 15.8399 19.7471C16.3524 19.7471 16.7571 19.6122 17.0539 19.3424C17.3506 19.0727 17.499 18.7085 17.499 18.2431C17.499 17.7777 17.3641 17.3865 17.1011 17.1033C16.8381 16.82 16.3862 16.5637 15.7522 16.3209C15.1182 16.0848 14.5719 15.842 14.1133 15.606C13.6546 15.3699 13.2567 15.1001 12.933 14.7966C12.6025 14.4931 12.3462 14.1289 12.1641 13.7175C11.982 13.3061 11.8875 12.8137 11.8875 12.2404C11.8875 11.2557 12.2045 10.4531 12.8318 9.81913C13.459 9.19189 14.2954 8.82093 15.3408 8.71977V6.85152H16.7369V8.74674C17.7688 8.89512 18.5714 9.32003 19.1582 10.035C19.7382 10.7499 20.035 11.6739 20.035 12.807H17.5125C17.5125 12.1055 17.3709 11.5862 17.0809 11.2422C16.7908 10.8983 16.4064 10.7229 15.9208 10.7229C15.4352 10.7229 15.071 10.8578 14.8147 11.1276C14.5516 11.3974 14.4235 11.7751 14.4235 12.2472C14.4235 12.6923 14.5516 13.043 14.8079 13.3128H14.8012Z" fill="#2FBE92"/>
</svg>
