<svg width="28" height="28" viewBox="0 0 28 28" fill="none" xmlns="http://www.w3.org/2000/svg">
<path d="M13.0375 0.464478C13.4604 0.464478 13.8833 0.464478 14.3035 0.464478C14.3517 0.472508 14.4025 0.483216 14.4507 0.48857C14.911 0.534079 15.3741 0.566203 15.8317 0.63045C17.0816 0.801777 18.278 1.1712 19.4155 1.71463C21.2114 2.57394 22.7209 3.79999 24.011 5.30445C25.855 7.45674 26.8962 9.94366 27.1156 12.7705C27.129 12.9579 27.1504 13.1426 27.1665 13.33V14.5962C27.1585 14.6418 27.1477 14.6846 27.1424 14.7301C27.0942 15.1986 27.0648 15.6724 26.9979 16.1382C26.8346 17.3 26.5054 18.419 26.0183 19.4871C25.0066 21.6983 23.4757 23.4865 21.5379 24.9321C19.5038 26.4499 17.2047 27.2584 14.6782 27.4324C13.4979 27.5127 12.3229 27.4538 11.156 27.2476C9.89805 27.0228 8.70167 26.6266 7.56686 26.0376C5.72279 25.082 4.19454 23.7515 2.91787 22.1239C1.27186 20.0252 0.385952 17.6319 0.203953 14.9764C0.131689 13.9109 0.174512 12.8482 0.332423 11.7908C0.509068 10.629 0.830242 9.51266 1.31468 8.44187C2.17382 6.54925 3.4371 4.96715 5.00818 3.62063C7.16272 1.77887 9.64914 0.737529 12.4755 0.51534C12.6628 0.501955 12.8475 0.480539 13.0348 0.464478H13.0375ZM13.6692 23.607C18.9177 23.7033 23.3231 19.206 23.3338 13.9859C23.3445 8.72563 18.915 4.29791 13.6718 4.29791C8.42868 4.29791 4.00986 8.7176 4.00718 13.9538C4.00183 19.2006 8.426 23.698 13.6692 23.607Z" fill="#2FBE92"/>
<path d="M15.5936 20.4803V22.1587H11.7475V20.5311C9.95964 20.1457 8.58395 19.2756 7.96569 17.4499C9.19685 17.0564 10.42 16.6683 11.6512 16.2747C11.8626 16.6683 12.2052 16.9252 12.5959 17.0993C13.4551 17.4874 14.2982 17.4205 15.1064 16.9386C15.3232 16.8101 15.4999 16.6335 15.4919 16.347C15.4838 16.0954 15.3554 15.916 15.1546 15.7795C14.7933 15.5359 14.3838 15.4422 13.9583 15.4235C13.2624 15.3967 12.5638 15.386 11.876 15.2575C10.891 15.0701 9.97035 14.7328 9.17009 14.1144C8.48492 13.5844 8.03795 12.9044 7.92286 12.0371C7.78637 11.0172 8.05401 10.1016 8.70439 9.30121C9.4645 8.36695 10.4682 7.81817 11.6083 7.4889C11.6512 7.47552 11.6967 7.46481 11.7475 7.44875V5.77563H15.5962V7.39253C17.3868 7.77801 18.7625 8.65071 19.3807 10.4764C18.1496 10.8699 16.9291 11.2581 15.6953 11.6516C15.4785 11.2527 15.1332 10.9931 14.7371 10.8191C13.8592 10.4363 13.0081 10.5059 12.1998 11.0305C12.157 11.0573 12.1195 11.0921 12.0821 11.1242C11.7743 11.4053 11.7716 11.7212 12.0874 11.9943C12.4006 12.2646 12.7779 12.4145 13.1821 12.4654C13.5327 12.5082 13.886 12.5082 14.2393 12.527C15.4196 12.5885 16.5544 12.8241 17.5929 13.4184C18.2593 13.7985 18.8374 14.2777 19.1532 14.9951C19.6966 16.2266 19.5306 17.3991 18.7518 18.4752C18.088 19.3961 17.1593 19.9609 16.0967 20.3197C15.9361 20.3732 15.7729 20.4187 15.5962 20.4749L15.5936 20.4803Z" fill="#2FBE92"/>
</svg>
