<svg width="27" height="23" viewBox="0 0 27 23" fill="none" xmlns="http://www.w3.org/2000/svg">
<path d="M5.07237 8.74608C5.09665 6.24543 7.18942 4.1478 9.69007 4.12352C10.1416 4.12352 10.5787 4.18178 10.9962 4.29832C11.2779 4.29832 11.5546 4.29832 11.8363 4.29832H13.0502C13.1133 4.29832 13.1716 4.29832 13.225 4.30803H13.2881C13.3804 4.31774 13.4629 4.34202 13.5406 4.37601V4.03612C13.5406 3.66709 13.8416 3.36604 14.2107 3.36604H16.0801C16.4491 3.36604 16.7502 3.66709 16.7502 4.03612V5.92496C16.7696 5.97351 16.789 6.02692 16.8084 6.08034H17.3086V4.36144C16.2743 2.54058 14.6477 1.23927 12.4189 0.46237C11.8751 0.273001 11.2827 0.214733 10.7146 0.0884867C10.6661 0.0787754 10.6224 0.044786 10.5787 0.0205078H8.87919C8.8452 0.044786 8.81121 0.083631 8.77722 0.0884867C5.1452 0.525494 2.2561 2.99701 1.28983 6.50763C1.1733 6.92522 1.12474 7.35737 1.03734 7.78466C1.02763 7.82351 0.993639 7.8575 0.96936 7.89149V9.70264C0.993639 9.74148 1.03248 9.78033 1.03734 9.82403C1.26555 11.5963 1.94049 13.1696 3.11069 14.5194C4.16922 15.7479 5.45111 16.5928 6.93208 17.0929C6.93208 15.6071 6.93208 14.0679 6.93208 12.5189C5.79586 11.6497 5.0578 10.2659 5.07237 8.74608ZM8.31108 1.36066C9.26764 1.17615 10.2193 1.17615 11.1856 1.36066V3.1184C10.2291 2.88048 9.27735 2.87562 8.31108 3.1184V1.36066ZM4.12552 3.73507C4.62565 4.0264 5.13064 4.31289 5.63562 4.60422C4.69849 5.66761 4.5771 5.95895 4.13038 7.0806C3.6351 6.79411 3.13983 6.51249 2.63484 6.22115C2.96988 5.29858 3.4603 4.48283 4.12552 3.73992V3.73507ZM3.95557 13.6697C3.31463 12.9171 2.85335 12.077 2.54744 11.135C3.05728 10.8389 3.55741 10.5524 4.03326 10.2756C4.23235 10.7272 4.39744 11.1836 4.62565 11.606C4.85387 12.0236 5.15006 12.4024 5.42683 12.8151C4.95583 13.087 4.46542 13.3735 3.95557 13.6648V13.6697ZM26.4372 7.57587C26.3789 6.12404 25.1213 4.97325 23.6646 4.9684C23.3247 4.9684 22.9848 4.9684 22.6449 4.9684C22.1059 4.9684 21.567 4.9684 21.028 4.9684H20.8143V6.86209H21.0717C21.567 6.86209 22.0671 6.86209 22.5624 6.86209C22.8877 6.86209 23.2179 6.86209 23.5432 6.86209C24.1841 6.86209 24.558 7.23112 24.5677 7.87207C24.5726 8.39647 24.5677 8.91603 24.5677 9.44043C24.5677 9.51327 24.558 9.58125 24.5532 9.65894H9.50071C9.50071 9.00828 9.48128 8.3722 9.50556 7.74096C9.52498 7.20684 9.92315 6.86209 10.4718 6.86209C10.8214 6.86209 11.1759 6.86209 11.5255 6.86209C12.0111 6.86209 12.5015 6.86209 12.9871 6.86209H13.259V4.97811C13.1813 4.97811 13.1182 4.9684 13.055 4.9684C12.652 4.9684 12.2441 4.9684 11.8411 4.9684C11.3458 4.9684 10.8554 4.9684 10.3602 4.9684C10.2485 4.9684 10.1368 4.97325 10.03 4.99267C8.55871 5.25002 7.60701 6.37653 7.60701 7.88178C7.60701 11.9022 7.60701 15.9227 7.60701 19.948C7.60701 20.1471 7.61187 20.3462 7.65071 20.5404C7.92263 21.9534 9.04913 22.8808 10.5155 22.8857C12.317 22.8857 14.1136 22.8857 15.915 22.8857C18.3574 22.8857 20.8046 22.8857 23.247 22.8857C23.3538 22.8857 23.4606 22.8857 23.5675 22.8857C24.0385 22.8857 24.49 22.8031 24.9076 22.5749C25.9419 22.0068 26.4614 21.1279 26.4614 19.948C26.4614 17.0735 26.4614 14.2038 26.4614 11.3293C26.4614 10.0765 26.4906 8.82377 26.4372 7.57587ZM23.4801 20.992C21.5184 20.992 19.5567 20.992 17.595 20.992C15.2498 20.992 12.8996 20.992 10.5544 20.992C9.86973 20.992 9.49099 20.6278 9.49099 19.948C9.49099 17.2289 9.49099 14.5146 9.49099 11.7954C9.49099 11.7323 9.50071 11.6643 9.50556 11.5818H24.5532C24.5532 11.6692 24.5677 11.7469 24.5677 11.8245C24.5677 14.5194 24.5677 17.2143 24.5677 19.914C24.5677 20.6375 24.2084 20.9968 23.4801 20.9968V20.992ZM14.2155 7.77981H16.0849V4.03612H14.2155V7.77981ZM19.8481 4.03612H17.9786V7.77981H19.8481V4.03612ZM16.3666 17.4522C15.7159 16.7967 15.0604 16.1364 14.4292 15.4954C13.9922 15.9324 13.5552 16.3694 13.157 16.7627C14.2495 17.8552 15.3517 18.9623 16.42 20.0257C18.3865 18.0592 20.3773 16.0684 22.3536 14.0921C21.9408 13.6794 21.5087 13.2424 21.0377 12.7763C19.4985 14.3155 17.9544 15.8644 16.3714 17.4474L16.3666 17.4522Z" fill="#2FBE92"/>
</svg>
