<svg width="24" height="23" viewBox="0 0 24 23" fill="none" xmlns="http://www.w3.org/2000/svg">
<path fill-rule="evenodd" clip-rule="evenodd" d="M23.1114 8.81123H1.34696C1.13874 8.81123 1.02581 8.71594 0.979926 8.50419C0.976397 8.49361 0.96228 8.47596 0.96228 8.47596V7.30427L0.965087 7.28871C0.971266 7.25432 0.977796 7.21797 0.986984 7.18428C1.01875 7.06429 1.07168 6.95489 1.18109 6.8843C1.3219 6.7948 1.46203 6.70428 1.60212 6.61379L1.60213 6.61378L1.60214 6.61377C1.91497 6.4117 2.22756 6.20978 2.54688 6.01965C3.79618 5.27572 5.04547 4.53292 6.29477 3.79012L6.29495 3.79001C8.16891 2.6758 10.0429 1.56158 11.9168 0.443557C12.0545 0.358857 12.1886 0.341211 12.3262 0.415324C12.4638 0.488567 12.6025 0.560415 12.7412 0.632293L12.7412 0.632298C13.0436 0.789002 13.3463 0.945852 13.6391 1.11763C14.8785 1.85029 16.1168 2.58521 17.3552 3.32012C19.2126 4.4225 21.0701 5.52487 22.9314 6.61961C23.3161 6.84548 23.4961 7.13134 23.4749 7.56543C23.4661 7.72421 23.4643 7.88298 23.4625 8.04176V8.04189C23.4608 8.2007 23.459 8.3595 23.4502 8.51831C23.4396 8.69477 23.2914 8.81123 23.1114 8.81123ZM23.1008 20.0693C23.3337 20.0693 23.4749 20.214 23.4749 20.4469L23.4784 20.454C23.4784 20.6799 23.4776 20.9057 23.4769 21.1316V21.132C23.4753 21.5836 23.4737 22.0352 23.4784 22.4868C23.4784 22.6138 23.4608 22.7162 23.3514 22.7938C23.327 22.8084 23.3094 22.8314 23.2916 22.8547C23.2835 22.8652 23.2754 22.8757 23.2667 22.8856H1.17403L0.96581 22.6774V20.2669C0.972869 20.2622 0.980712 20.2579 0.988556 20.2536H0.988558C1.00424 20.245 1.01993 20.2364 1.02934 20.2246C1.12462 20.0799 1.26579 20.0693 1.42813 20.0693H23.1008ZM5.92781 10.2229H3.73267C3.5915 10.2229 3.4221 10.3958 3.4221 10.537V18.347C3.4221 18.4882 3.59503 18.6611 3.7362 18.6611H5.91723C6.07604 18.6611 6.24191 18.4953 6.24191 18.3364V14.4438V10.5405C6.24191 10.3993 6.07251 10.2299 5.92781 10.2299V10.2229ZM18.5128 10.2229H20.6939C20.8456 10.2229 21.015 10.3923 21.015 10.5405V14.4438V18.3259C21.015 18.4917 20.8527 18.6576 20.6868 18.6576H18.5164C18.3646 18.6576 18.1952 18.4882 18.1952 18.34V10.544C18.1952 10.3923 18.3646 10.2229 18.5128 10.2229ZM10.844 10.2229H8.67352C8.51118 10.2229 8.35236 10.3817 8.35236 10.5476V18.3329C8.35236 18.4988 8.51118 18.6576 8.67352 18.6576H10.8334C11.0028 18.6576 11.1616 18.4953 11.1616 18.3294V14.4473V10.544C11.1616 10.3923 10.9957 10.2264 10.844 10.2264V10.2229ZM13.2756 10.5476C13.2756 10.3887 13.4415 10.2229 13.6003 10.2229H15.7707C15.926 10.2229 16.0848 10.3852 16.0848 10.5405V18.34C16.0848 18.4953 15.9225 18.6576 15.7672 18.6576H13.5862C13.445 18.6576 13.2756 18.4882 13.2756 18.3435V14.4402V10.5476Z" fill="#2FBE92"/>
</svg>
