<svg width="41" height="41" viewBox="0 0 41 41" fill="none" xmlns="http://www.w3.org/2000/svg">
<circle cx="20.968" cy="20.72" r="19.5" fill="#2FBE92" stroke="#13EAA8"/>
<path d="M18.4368 21.3872L15.2961 20.6489L16.3274 11.9302H26.3V15.0005H19.55L19.1633 18.3872C19.3508 18.2778 19.6672 18.1489 20.1125 18.0005C20.5657 17.8442 21.0657 17.7661 21.6125 17.7661C22.4563 17.7661 23.2024 17.895 23.8508 18.1528C24.5071 18.4028 25.0618 18.7739 25.5149 19.2661C25.968 19.7505 26.3079 20.3481 26.5344 21.0591C26.7688 21.77 26.886 22.5825 26.886 23.4966C26.886 24.231 26.7649 24.9419 26.5227 25.6294C26.2883 26.3091 25.925 26.9224 25.4329 27.4692C24.9485 28.0083 24.3352 28.438 23.593 28.7583C22.8508 29.0708 21.9719 29.2271 20.9563 29.2271C20.1985 29.2271 19.4602 29.1099 18.7415 28.8755C18.0227 28.6411 17.3743 28.3052 16.7961 27.8677C16.2258 27.4224 15.7727 26.8872 15.4368 26.2622C15.1086 25.6294 14.9485 24.9224 14.9563 24.1411H18.929C18.9524 24.5552 19.05 24.9146 19.2219 25.2192C19.3938 25.5239 19.6243 25.7622 19.9133 25.9341C20.2102 26.0981 20.55 26.1802 20.9329 26.1802C21.3235 26.1802 21.6477 26.1021 21.9055 25.9458C22.1633 25.7896 22.3665 25.5747 22.5149 25.3013C22.6633 25.0278 22.7688 24.7153 22.8313 24.3638C22.8938 24.0044 22.925 23.6255 22.925 23.2271C22.925 22.8052 22.8782 22.4263 22.7844 22.0903C22.6985 21.7544 22.5579 21.4692 22.3625 21.2349C22.1672 20.9927 21.9133 20.8091 21.6008 20.6841C21.2961 20.5591 20.929 20.4966 20.4993 20.4966C19.929 20.4966 19.4797 20.5942 19.1516 20.7896C18.8235 20.9849 18.5852 21.1841 18.4368 21.3872Z" fill="white"/>
</svg>
