<svg width="15" height="16" viewBox="0 0 15 16" fill="none" xmlns="http://www.w3.org/2000/svg">
<path d="M0.31519 7.98609C0.31519 4.05886 3.50291 0.893554 7.39092 0.85994C11.3798 0.826326 14.5899 4.05886 14.5955 7.99169C14.5955 11.9357 11.4022 15.1234 7.49176 15.1403C3.52532 15.1571 0.298383 11.9357 0.31519 7.98609ZM3.234 8.0029C3.234 10.3335 5.12198 12.2214 7.45815 12.2214C9.78871 12.2214 11.6767 10.3279 11.6711 7.9973C11.6711 5.66113 9.7719 3.76754 7.40773 3.78995C5.09957 3.81236 3.234 5.67233 3.234 8.0085V8.0029ZM8.41054 13.6164H8.38813C8.37693 13.2971 8.36572 12.9778 8.36012 12.6584C8.36012 12.5856 8.32651 12.5856 8.27609 12.5968C7.73266 12.692 7.18363 12.6976 6.64021 12.5968C6.57298 12.5856 6.55057 12.5968 6.55057 12.6752C6.53376 13.2579 6.51696 13.8349 6.50015 14.4176C6.50015 14.4848 6.46654 14.5744 6.51135 14.6192C6.55057 14.6641 6.64021 14.6472 6.70744 14.6529C7.25646 14.7145 7.79989 14.7089 8.34892 14.636C8.41614 14.6248 8.42175 14.6024 8.41614 14.5464C8.41614 14.2383 8.41614 13.9246 8.41614 13.6164H8.41054ZM8.39934 1.9804C8.39934 1.9804 8.40494 1.9804 8.41054 1.9804C8.41054 1.79553 8.41054 1.61625 8.41054 1.43138C8.41054 1.38656 8.39934 1.37535 8.35452 1.36975C7.76067 1.29132 7.16122 1.29132 6.56738 1.36975C6.50575 1.38096 6.48895 1.39776 6.48895 1.45939C6.51135 2.08685 6.52816 2.71431 6.54497 3.33617C6.54497 3.4202 6.58419 3.4202 6.64021 3.409C7.18363 3.31376 7.72706 3.31376 8.27048 3.409C8.34331 3.4202 8.36012 3.40339 8.36012 3.33056C8.37132 2.88238 8.38813 2.43419 8.40494 1.9804H8.39934ZM13.0605 8.93849C13.3798 8.94969 13.6935 8.95529 14.0129 8.9665C14.0689 8.9665 14.0801 8.95529 14.0857 8.89927C14.1081 8.70319 14.1305 8.5015 14.1417 8.30542C14.1641 7.90206 14.1417 7.49869 14.0857 7.10092C14.0801 7.0449 14.0577 7.0393 14.0073 7.0393C13.3798 7.06171 12.7467 7.07852 12.1193 7.09532C12.0464 7.09532 12.0296 7.11773 12.0464 7.18496C12.0857 7.38664 12.1081 7.59393 12.1137 7.80121C12.1249 8.14856 12.1137 8.4903 12.0408 8.83204C12.0296 8.88806 12.0408 8.91047 12.1025 8.91047C12.4218 8.91608 12.7411 8.92728 13.0605 8.93849ZM1.84462 7.06171C1.84462 7.06171 1.84462 7.0449 1.84462 7.0337C1.52529 7.0337 1.21156 7.0337 0.897831 7.0337C0.84741 7.0337 0.825001 7.0449 0.825001 7.10092C0.819399 7.21297 0.796989 7.32502 0.791387 7.43706C0.746568 7.91886 0.763375 8.40066 0.825001 8.87686C0.836206 8.95529 0.86982 8.96089 0.937047 8.96089C1.5533 8.93849 2.16956 8.92168 2.78021 8.90487C2.88665 8.90487 2.88105 8.90487 2.86425 8.80403C2.76901 8.27181 2.76901 7.73399 2.86425 7.20177C2.88105 7.10092 2.88105 7.09532 2.77461 7.09532C2.46648 7.08412 2.15835 7.07851 1.85023 7.06731L1.84462 7.06171ZM4.83626 11.8909C4.84186 11.8629 4.82506 11.8517 4.80825 11.8461C4.65699 11.7284 4.50012 11.622 4.36006 11.4875C4.09115 11.2354 3.83345 10.9777 3.62616 10.664C3.58694 10.6024 3.55893 10.6136 3.51411 10.6528C3.30123 10.8545 3.09394 11.0506 2.88105 11.2466C2.65696 11.4539 2.43287 11.6612 2.20877 11.8741C2.07992 11.9974 2.07992 11.9917 2.19197 12.1318C2.53931 12.58 2.94268 12.9666 3.39086 13.3195C3.43568 13.3531 3.46369 13.3587 3.50291 13.3139C3.65417 13.1458 3.80543 12.9778 3.9623 12.8153C4.23681 12.524 4.51693 12.2326 4.79144 11.9357C4.80825 11.9189 4.81945 11.9021 4.83066 11.8853L4.83626 11.8909ZM4.84747 4.10929C4.84747 4.10929 4.82506 4.08127 4.80825 4.06447C4.76903 4.02525 4.72982 3.98603 4.6906 3.94682C4.29844 3.52664 3.90067 3.10647 3.50851 2.68069C3.4693 2.64148 3.44689 2.63027 3.39647 2.66949C2.91467 3.04484 2.48889 3.47062 2.11353 3.95242C2.08552 3.99164 2.09113 4.00844 2.12474 4.03646C2.34883 4.24374 2.57853 4.45103 2.79702 4.66392C3.02671 4.88241 3.27321 5.08969 3.4917 5.31939C3.51411 5.3474 3.57014 5.42023 3.62056 5.33619C3.73821 5.14571 3.88947 4.98325 4.04073 4.81518C4.27043 4.56307 4.53374 4.35019 4.80825 4.1485C4.82506 4.1373 4.84747 4.1373 4.84747 4.10368V4.10929ZM11.4638 13.3587C11.4638 13.3587 11.4862 13.3419 11.4974 13.3307C11.968 12.9666 12.3938 12.5464 12.7635 12.0758C12.814 12.0086 12.814 11.9749 12.7523 11.9133C12.3658 11.5604 11.9848 11.1962 11.5983 10.8377C11.5254 10.7704 11.4526 10.6976 11.3798 10.6304C11.3518 10.6024 11.3237 10.5912 11.2957 10.6304C11.2005 10.7929 11.0716 10.9329 10.9484 11.073C10.8419 11.1962 10.7299 11.3139 10.6123 11.4259C10.4498 11.5716 10.2817 11.7116 10.1024 11.8293C10.0744 11.8461 10.0632 11.8685 10.0968 11.9021C10.1473 11.9525 10.1865 12.003 10.2369 12.0534C10.377 12.199 10.517 12.3391 10.6515 12.4848C10.9092 12.7649 11.1669 13.0394 11.4302 13.3195C11.4414 13.3307 11.4526 13.3475 11.4694 13.3475L11.4638 13.3587ZM12.814 3.99164C12.814 3.99164 12.814 3.98043 12.8084 3.97483C12.7803 3.91881 12.7299 3.87959 12.6963 3.82917C12.3546 3.39219 11.9568 3.01123 11.5198 2.66949C11.475 2.63588 11.4526 2.63027 11.4078 2.66949C10.9764 3.14008 10.5394 3.60508 10.1024 4.07007C10.0688 4.10368 10.0744 4.12609 10.1136 4.1541C10.3265 4.29976 10.5226 4.45663 10.7019 4.64151C10.9148 4.85439 11.1165 5.07288 11.2845 5.31939C11.3293 5.38661 11.3518 5.38101 11.4022 5.33059C11.6319 5.1121 11.8672 4.89361 12.1025 4.67512C12.3266 4.46783 12.5451 4.26055 12.7691 4.05326C12.7916 4.03646 12.814 4.01965 12.8196 3.98603L12.814 3.99164Z" fill="#8162C2"/>
<path d="M7.45829 9.36986C7.62076 9.99172 7.76082 10.6248 8.33785 11.0618H6.57312C7.15016 10.6304 7.28462 9.99732 7.43028 9.36426C7.34064 9.44829 7.2454 9.53793 7.15576 9.62196C6.65716 10.1094 5.85603 10.2438 5.22857 9.9413C4.72436 9.7004 4.39382 9.31384 4.25937 8.77601C4.14732 8.31102 4.20334 7.86284 4.46105 7.44266C4.54508 7.30821 4.64032 7.19056 4.75237 7.07291C5.15574 6.66394 5.5535 6.25497 5.95687 5.8516C6.32662 5.47625 6.70198 5.10089 7.07173 4.72554C7.18378 4.60789 7.30142 4.49584 7.41347 4.37819C7.45269 4.33337 7.4751 4.34458 7.51431 4.37819C7.83365 4.70873 8.15858 5.03366 8.47791 5.3586C8.97092 5.85721 9.46392 6.36141 9.95692 6.86002C10.1586 7.06731 10.3771 7.25779 10.506 7.52109C10.8253 8.16536 10.7973 8.79282 10.3715 9.38106C9.8953 10.0477 9.02694 10.2718 8.27063 9.9581C7.9737 9.83485 7.75521 9.61636 7.53112 9.40347C7.51431 9.39227 7.50871 9.36986 7.4919 9.35866C7.4807 9.35866 7.4751 9.36426 7.46389 9.36986H7.45829Z" fill="#8162C2"/>
<path d="M7.45255 14.3615C7.37972 14.2439 7.31809 14.1374 7.25646 14.0254C7.23406 13.9862 7.21165 13.975 7.16683 13.9638C7.05478 13.9414 6.94834 13.919 6.83069 13.8965C6.83069 13.8461 6.8643 13.8125 6.89792 13.7845C7.04358 13.6239 7.0996 13.4372 7.06599 13.2243C7.06599 13.1963 7.06038 13.1682 7.05478 13.129C7.17803 13.1851 7.29008 13.2299 7.40212 13.2859C7.44694 13.3083 7.48616 13.3027 7.53098 13.2859C7.63742 13.2355 7.74387 13.1851 7.85591 13.1346C7.84471 13.2691 7.8335 13.3979 7.8167 13.5268C7.81109 13.5716 7.8223 13.6052 7.85591 13.6332C7.93995 13.7173 8.01838 13.8069 8.11362 13.9021C7.97356 13.9358 7.85031 13.9694 7.72146 13.9918C7.68224 13.9974 7.65983 14.0198 7.64302 14.0478C7.5814 14.1543 7.51977 14.2551 7.45815 14.3727L7.45255 14.3615Z" fill="#8162C2"/>
<path d="M7.4526 1.63306C7.51983 1.75071 7.58146 1.85155 7.63748 1.95799C7.65989 2.00281 7.6935 2.01401 7.73832 2.02522C7.85597 2.04763 7.97362 2.07564 8.10247 2.10365C8.02964 2.2101 7.9344 2.28293 7.86157 2.37256C7.82796 2.41178 7.81115 2.43979 7.81675 2.49581C7.83356 2.61906 7.83916 2.74232 7.85597 2.87677C7.73832 2.82635 7.63188 2.78153 7.52543 2.72551C7.47501 2.6975 7.4358 2.7087 7.39098 2.72551C7.28453 2.77593 7.17249 2.82075 7.05484 2.87677C7.07165 2.74792 7.08285 2.62467 7.09966 2.50702C7.10526 2.4678 7.09966 2.43419 7.07165 2.40618C6.98201 2.31654 6.90358 2.2157 6.80273 2.10925C6.93719 2.08124 7.05484 2.05323 7.17249 2.03642C7.22291 2.03082 7.24532 2.00841 7.26212 1.9692C7.32375 1.86275 7.38538 1.75631 7.4526 1.63866V1.63306Z" fill="#8162C2"/>
<path d="M13.8224 7.99731C13.7215 8.05894 13.6319 8.12056 13.5367 8.16538C13.447 8.2046 13.419 8.27743 13.4078 8.36146C13.391 8.4567 13.3742 8.54634 13.3518 8.65278C13.251 8.56315 13.1557 8.48471 13.0661 8.39508C13.0269 8.36146 12.9988 8.34466 12.9428 8.35586C12.8252 8.37827 12.7075 8.38387 12.5787 8.40068C12.6347 8.27743 12.6795 8.16538 12.7355 8.05334C12.7579 8.00852 12.7579 7.9693 12.7355 7.92448C12.6851 7.81804 12.6347 7.71159 12.5843 7.59955C12.7187 7.61075 12.842 7.62196 12.9652 7.63876C13.0213 7.64437 13.0549 7.63316 13.0885 7.59394C13.1725 7.51551 13.2566 7.43708 13.3518 7.34744C13.3742 7.44268 13.4078 7.52672 13.4078 7.60515C13.4134 7.76201 13.5087 7.83484 13.6319 7.89647C13.6935 7.92448 13.7552 7.9581 13.8224 7.99731Z" fill="#8162C2"/>
<path d="M1.09393 7.99726C1.20598 7.93004 1.31242 7.86841 1.41887 7.81239C1.45808 7.78998 1.46929 7.76757 1.48049 7.72835C1.5085 7.6051 1.53652 7.48185 1.56453 7.353C1.66537 7.42583 1.7438 7.50986 1.82784 7.58829C1.86705 7.62191 1.90067 7.64432 1.95669 7.63311C2.07434 7.61631 2.19759 7.6107 2.33205 7.5939C2.28162 7.70594 2.23681 7.81239 2.18639 7.91323C2.16398 7.95805 2.15837 7.99726 2.18639 8.04768C2.24241 8.15413 2.28723 8.26617 2.33765 8.38943C2.20879 8.37262 2.08554 8.36141 1.96229 8.34461C1.92308 8.339 1.89506 8.34461 1.86145 8.37822C1.78862 8.45105 1.71579 8.51828 1.63736 8.58551C1.62055 8.60231 1.60374 8.63593 1.57573 8.61912C1.55893 8.60792 1.55332 8.5743 1.54772 8.55189C1.53091 8.46226 1.5085 8.37262 1.4917 8.28298C1.4861 8.23816 1.46369 8.21015 1.42447 8.18774C1.31803 8.12612 1.21158 8.05889 1.09393 7.99166V7.99726Z" fill="#8162C2"/>
<path d="M3.74942 12.6248C3.64298 12.5576 3.54214 12.496 3.4469 12.4287C3.40208 12.3951 3.36286 12.3951 3.31244 12.4119C3.20039 12.4455 3.08274 12.4679 2.95949 12.5016C2.99311 12.3839 3.02112 12.2719 3.05473 12.1598C3.07154 12.1094 3.06594 12.0758 3.03793 12.031C2.9707 11.9301 2.90907 11.8237 2.83624 11.7172C2.92588 11.6948 3.00991 11.7004 3.09395 11.706C3.2172 11.7172 3.30124 11.6724 3.36846 11.566C3.40768 11.5043 3.4581 11.4539 3.50852 11.3979C3.51973 11.3867 3.53653 11.3531 3.56454 11.4035C3.61497 11.4931 3.64298 11.5884 3.67659 11.6836C3.6934 11.734 3.72701 11.7621 3.77743 11.7789C3.88948 11.8181 4.00153 11.8629 4.12478 11.9077C4.01833 11.9918 3.9287 12.0702 3.83346 12.143C3.79984 12.1654 3.78303 12.1934 3.78303 12.2327C3.78303 12.3615 3.76623 12.4848 3.76063 12.6248H3.74942Z" fill="#8162C2"/>
<path d="M2.97072 3.50987C3.03795 3.52668 3.10518 3.52668 3.16681 3.55469C3.32927 3.64432 3.45813 3.57149 3.58698 3.48186C3.6374 3.44824 3.69342 3.37541 3.73824 3.39782C3.78306 3.42023 3.76065 3.50987 3.75505 3.56589C3.74945 3.71715 3.77186 3.85161 3.92312 3.93004C3.99035 3.96926 4.04077 4.03088 4.1136 4.08691C4.01276 4.14293 3.90071 4.17094 3.79987 4.20456C3.73824 4.22697 3.70463 4.25498 3.68222 4.3166C3.64861 4.42865 3.59818 4.53509 3.55337 4.65834C3.46933 4.5519 3.3853 4.45666 3.31247 4.36142C3.29006 4.32781 3.26765 4.3166 3.22843 4.3166C3.10518 4.3166 2.98193 4.3054 2.84747 4.29419C2.88109 4.19335 2.95392 4.12052 3.00434 4.04209C3.06036 3.96366 3.07157 3.89083 3.03795 3.80119C3.00994 3.70595 2.97072 3.61071 2.98193 3.50987H2.97072Z" fill="#8162C2"/>
<path d="M2.97717 3.50983V3.51649C2.9705 3.51649 2.9705 3.51649 2.97717 3.51649V3.50983Z" fill="#8162C2"/>
<path d="M12.0858 11.6892C12.0073 11.8181 11.9457 11.9189 11.8785 12.0197C11.8505 12.0646 11.8449 12.0982 11.8561 12.1486C11.8897 12.2606 11.9177 12.3727 11.9513 12.4959C11.8225 12.4623 11.7048 12.4399 11.5872 12.4063C11.5367 12.3895 11.4975 12.3951 11.4583 12.4287C11.3631 12.4959 11.2622 12.5576 11.1558 12.6248C11.1446 12.4959 11.1334 12.3783 11.1334 12.2606C11.1334 12.2046 11.1166 12.1654 11.0717 12.1318C10.9765 12.0646 10.8925 11.9917 10.7916 11.9077C10.9149 11.8629 11.0269 11.8125 11.139 11.7732C11.195 11.7564 11.2174 11.7228 11.2398 11.6668C11.279 11.5603 11.307 11.4483 11.3631 11.3419C11.4471 11.4427 11.5255 11.5379 11.604 11.6332C11.632 11.6668 11.66 11.6892 11.7048 11.6892C11.8225 11.6892 11.9401 11.6892 12.0858 11.6892Z" fill="#8162C2"/>
<path d="M11.1613 3.37543C11.2733 3.44826 11.3798 3.50988 11.4806 3.57711C11.5198 3.60512 11.559 3.61072 11.6039 3.59952C11.6991 3.57151 11.7943 3.5491 11.8896 3.52109C11.9456 3.50428 11.9568 3.52109 11.94 3.57151C11.912 3.66675 11.8952 3.76759 11.8616 3.86283C11.8504 3.90765 11.8504 3.94686 11.8784 3.98608C11.9456 4.08692 12.0072 4.18776 12.0801 4.29421C11.9456 4.29981 11.8168 4.31101 11.6935 4.31662C11.6543 4.31662 11.6319 4.32782 11.6095 4.36144C11.5366 4.46228 11.4526 4.55191 11.3686 4.65836C11.3238 4.53511 11.2733 4.42306 11.2341 4.30541C11.2173 4.25499 11.1893 4.23258 11.1445 4.21578C11.0324 4.17656 10.9204 4.13734 10.8027 4.09252C10.9092 4.00849 11.0044 3.92445 11.0997 3.85162C11.1333 3.82922 11.1501 3.8012 11.1501 3.76199C11.1501 3.63874 11.1613 3.52109 11.1669 3.38103L11.1613 3.37543Z" fill="#8162C2"/>
</svg>
