<svg width="20" height="21" viewBox="0 0 20 21" fill="none" xmlns="http://www.w3.org/2000/svg">
<path d="M14.9928 20.7121H5.03075C5.02611 20.2441 5.26242 19.8688 5.5358 19.5259C6.28179 18.59 7.25482 17.9922 8.39003 17.6447C8.5383 17.5984 8.59853 17.5335 8.5939 17.3714C8.58463 16.7829 8.58927 16.1945 8.5939 15.606C8.5939 15.4809 8.57073 15.4114 8.43173 15.3743C7.24556 15.0361 6.30032 14.3411 5.5636 13.3634C5.41533 13.1642 5.24389 13.0807 5.01221 13.0298C2.00508 12.4228 0.0497437 10.018 0.0497437 6.94137C0.0497437 5.43549 0.0497437 3.9296 0.0497437 2.42372C0.0497437 2.34031 0.0497437 2.25691 0.0497437 2.15034H3.62217V0.74176H16.4013V2.15498H19.9738V7.52519C19.9599 7.58543 19.9321 7.64103 19.9274 7.70126C19.807 8.75307 19.4733 9.73073 18.8571 10.5926C17.8702 11.978 16.4847 12.7286 14.8491 13.0715C14.7425 13.0946 14.6221 13.1734 14.5572 13.2568C13.788 14.2669 12.8289 15.0175 11.5918 15.3697C11.4481 15.4114 11.4342 15.4855 11.4342 15.606C11.4342 16.1806 11.4435 16.7505 11.4342 17.325C11.4342 17.5104 11.4806 17.5938 11.6659 17.6494C12.6667 17.9505 13.5425 18.4649 14.2514 19.2387C14.636 19.6557 14.9835 20.1005 14.9974 20.7121H14.9928ZM7.47723 10.6065C7.47723 10.6065 7.5143 10.625 7.53283 10.6389C7.60233 10.5833 7.67647 10.5277 7.74597 10.4767C8.07958 10.2451 8.39466 9.98094 8.74681 9.7817C9.48817 9.36469 10.2759 9.30445 11.0404 9.67513C11.4852 9.89291 11.879 10.2126 12.2961 10.486C12.3656 10.5323 12.4397 10.574 12.5092 10.6204C12.5324 10.5045 12.5138 10.435 12.4907 10.3609C12.4073 10.106 12.3239 9.85584 12.2451 9.601C11.9068 8.51213 12.0598 7.53446 12.9216 6.74213C13.2228 6.46412 13.5749 6.23245 13.8992 5.97761C13.9595 5.93127 14.0151 5.8803 14.0707 5.82933C13.9873 5.77837 13.927 5.77837 13.8668 5.77837C13.4776 5.77837 13.0838 5.8108 12.6992 5.76446C11.7215 5.65789 10.9662 5.18991 10.5492 4.27711C10.3685 3.88327 10.2527 3.45699 10.1091 3.04461C10.0859 2.97974 10.0581 2.91487 10.0303 2.85C9.94688 2.92413 9.91908 2.99364 9.89591 3.06314C9.78007 3.40138 9.6735 3.7489 9.53913 4.08251C9.17772 4.97214 8.55683 5.56986 7.57917 5.70423C7.16215 5.75983 6.73587 5.7552 6.31422 5.77373C6.19375 5.77837 6.07792 5.77373 5.95744 5.77373C5.94818 5.7969 5.94354 5.8247 5.93428 5.84787C5.99451 5.8942 6.05938 5.94517 6.11962 5.99151C6.39299 6.19075 6.67564 6.37145 6.93048 6.58923C7.60233 7.16378 8.02862 7.87734 7.91741 8.7855C7.85254 9.31372 7.65794 9.82804 7.52356 10.3516C7.5004 10.435 7.4865 10.5184 7.46796 10.6018L7.47723 10.6065ZM1.49076 3.61916C1.48149 3.67013 1.47223 3.69793 1.47223 3.72573C1.48149 5.07407 1.45832 6.42705 1.51393 7.77077C1.55563 8.72063 1.90777 9.56856 2.6167 10.2404C3.09395 10.6899 3.64997 10.9957 4.29402 11.2413C4.26622 11.1486 4.25232 11.0976 4.23842 11.0466C3.85384 9.94387 3.64533 8.80404 3.62217 7.64103C3.599 6.39462 3.60826 5.14821 3.60363 3.89717C3.60363 3.8045 3.60363 3.71646 3.60363 3.61452H1.49076V3.61916ZM16.4152 3.61916C16.4152 3.71646 16.4152 3.79986 16.4152 3.88327C16.4152 5.00457 16.4152 6.12588 16.4152 7.25182C16.4106 8.17851 16.3133 9.09594 16.0863 9.99948C15.9843 10.4072 15.8638 10.8057 15.7387 11.2413C16.6608 10.8798 17.4485 10.3887 17.9675 9.54076C18.4354 8.77623 18.542 7.92831 18.5513 7.05721C18.5605 5.98224 18.5513 4.90727 18.5513 3.8323C18.5513 3.7628 18.542 3.69329 18.5374 3.61916H16.4152V3.61916Z" fill="#8162C2"/>
</svg>
