<svg width="17" height="16" viewBox="0 0 17 16" fill="none" xmlns="http://www.w3.org/2000/svg">
<path d="M8.40789 0.41362C12.6565 0.417337 16.1344 3.84475 16.1493 8.13088C16.1642 12.4691 12.6975 15.8221 8.57918 15.9113C4.14435 16.0043 0.588287 12.4096 0.651589 8.0491C0.711167 3.84475 4.1369 0.41362 8.40789 0.41362ZM4.57629 5.9525C4.56884 6.36141 4.62842 6.76289 4.72151 7.16065C4.9561 8.16062 5.39176 9.06766 6.04339 9.86317C7.1642 11.2274 8.58663 12.0676 10.3628 12.2572C10.6048 12.2832 10.8431 12.2906 11.074 12.1679C11.4054 11.9858 11.681 11.7404 11.9193 11.4505C11.964 11.3984 11.9975 11.3315 12.0161 11.2646C12.1203 10.9189 11.8932 10.4059 11.5581 10.2386C11.1187 10.0193 10.6495 9.88548 10.1803 9.74794C9.97926 9.68846 9.80798 9.74422 9.65158 9.85946C9.48774 9.98213 9.32763 10.1085 9.17124 10.2349C8.98506 10.3836 8.98506 10.3873 8.78026 10.2609C8.08766 9.82972 7.47699 9.30557 6.98919 8.64759C6.73971 8.31303 6.52374 7.95616 6.3599 7.56956C6.32267 7.48406 6.33011 7.4283 6.40831 7.3651C6.54981 7.25358 6.67641 7.11976 6.81418 7.00452C7.06739 6.79263 7.16048 6.54728 7.07856 6.21643C6.97802 5.79265 6.91472 5.35772 6.73971 4.95625C6.70248 4.87446 6.65407 4.77781 6.58332 4.72949C6.44927 4.63655 6.30032 4.55849 6.15138 4.49158C5.92424 4.39121 5.6971 4.41351 5.49602 4.55849C5.29122 4.70718 5.09015 4.85959 4.90769 5.03059C4.72523 5.20159 4.57256 5.40233 4.57256 5.6737C4.57256 5.76663 4.57256 5.85957 4.57256 5.95622L4.57629 5.9525Z" fill="#8162C2"/>
</svg>
