<svg width="19" height="13" viewBox="0 0 19 13" fill="none" xmlns="http://www.w3.org/2000/svg">
<path d="M17.9164 10.5865C17.6914 10.3297 17.4317 10.1047 17.1692 9.88548C16.6269 9.43257 16.0672 9.00273 15.5307 8.54405C15.1902 8.25268 14.8787 7.92381 14.5556 7.61514C14.4864 7.54879 14.4114 7.49109 14.345 7.42763C14.12 7.21127 13.9238 6.98337 14.0594 6.6343C14.0709 6.60546 14.0594 6.56795 14.0652 6.53334C14.12 6.1035 14.0998 5.65924 14.3017 5.25248C14.4402 4.96977 14.5729 4.67841 14.6623 4.37839C14.7604 4.04087 14.9104 3.83027 15.297 3.92836C15.3085 3.93124 15.323 3.92836 15.3374 3.92836C15.8538 3.80431 16.3644 3.77546 16.8836 3.92836C16.9673 3.95432 17.1173 3.89662 17.175 3.82739C17.2183 3.77546 17.1577 3.64276 17.1433 3.54179C17.3914 3.50429 17.4837 3.27928 17.3019 3.04561C17.2644 2.99945 17.2212 2.95329 17.1692 2.92156C17.0336 2.83502 16.8923 2.75424 16.7567 2.67058C16.5923 2.56673 16.399 2.49172 16.2692 2.35325C15.9663 2.03593 15.6057 1.85995 15.1787 1.80226C15.072 1.78783 14.9623 1.78206 14.8614 1.74456C14.8037 1.72437 14.7402 1.66379 14.7143 1.60609C14.6508 1.46762 14.6075 1.32049 14.5556 1.17914C14.5325 1.17914 14.5123 1.18491 14.4892 1.18779C14.394 1.34646 14.296 1.50512 14.2036 1.65513C14.1142 1.56282 14.0219 1.46473 13.8921 1.32915C13.8604 1.48204 13.8055 1.58013 13.8257 1.65802C13.9181 2.00708 13.719 2.19747 13.4767 2.3821C13.2776 2.53211 13.0988 2.70808 12.9113 2.87252C12.7209 3.03984 12.5305 3.20716 12.3487 3.36582C12.3199 3.34851 12.3112 3.34851 12.3083 3.34274C12.1381 2.99945 11.9708 2.65616 11.7948 2.31575C11.5871 1.91188 11.2525 1.73014 10.8025 1.77341C10.2659 1.82822 9.8274 2.10805 9.41775 2.43114C8.85522 2.8754 8.43692 3.4264 8.26095 4.13606C8.22633 4.27453 8.23787 4.42454 8.22922 4.5659C8.20037 4.5659 8.18883 4.57167 8.1744 4.5659C8.08209 4.54859 7.98978 4.5284 7.89746 4.5082C7.08683 4.34088 6.31659 4.38416 5.65308 4.96112C5.61558 4.99285 5.51461 4.99285 5.46557 4.96112C4.88573 4.62648 4.26549 4.49666 3.60199 4.59763C3.06541 4.68129 2.52884 4.77649 1.99515 4.87457C1.41242 4.9842 0.835459 5.0217 0.261383 4.81976C0.220996 4.80534 0.169069 4.82842 0.114258 4.83419C0.509476 5.65924 1.66051 6.28524 2.57788 6.21312C3.21831 6.1612 3.80969 5.96215 4.38954 5.69963C4.60301 5.60443 4.82515 5.54096 5.0617 5.60154C5.06747 5.63328 5.07035 5.6477 5.07035 5.65924C5.06747 5.67943 5.0617 5.69963 5.05304 5.71694C4.88861 6.09485 4.88861 6.47564 4.94919 6.87951C5.01843 7.34397 4.91746 7.78246 4.49628 8.07959C4.1876 8.29595 3.83854 8.41423 3.46063 8.44019C3.15773 8.46039 3.07118 8.53251 2.97598 8.82676C2.79136 9.38064 2.74232 9.9576 2.69904 10.5346C2.69039 10.6326 2.6875 10.7567 2.62692 10.8202C2.48845 10.9673 2.49711 11.1 2.61538 11.2442C2.52595 11.2904 2.44807 11.3308 2.37018 11.3712C2.19709 11.4577 2.15382 11.5933 2.26344 11.7519C2.39037 11.9395 2.53461 12.1183 2.67596 12.3001C2.74808 12.3924 2.82886 12.3866 2.91829 12.3116C3.1433 12.1241 3.27312 11.8904 3.26447 11.5933C3.2587 11.4519 3.2385 11.3106 3.23273 11.1692C3.20677 10.5201 3.49236 9.95472 3.74911 9.38641C3.78085 9.31717 3.9222 9.2739 4.0174 9.25659C4.3405 9.19601 4.66937 9.16428 4.98958 9.10081C5.29825 9.04023 5.59827 8.9508 5.90406 8.87291C5.9531 9.12678 5.90983 9.23351 5.72809 9.36045C5.4973 9.51911 5.46557 9.62873 5.60693 9.86529C5.7079 10.0326 5.82617 10.1884 5.94733 10.3384C6.25024 10.7076 6.56468 11.0683 6.86759 11.4346C6.91374 11.4894 6.95413 11.5644 6.9599 11.6308C6.97433 11.8154 7.06087 11.902 7.27434 11.8789C7.23973 11.9827 7.21376 12.052 7.19357 12.1241C7.13299 12.3664 7.17338 12.4501 7.41859 12.4991C7.62918 12.5395 7.84554 12.5482 8.05901 12.5626C8.18017 12.5712 8.23498 12.5107 8.24075 12.3808C8.25518 12.052 8.15133 11.7721 7.87727 11.5933C7.2455 11.1836 6.97144 10.5288 6.66277 9.89413C6.57334 9.70951 6.62238 9.56527 6.79258 9.4643C7.23684 9.20755 7.53398 8.82387 7.75322 8.37384C7.87727 8.12286 8.05613 8.03632 8.32153 8.06228C9.0485 8.14017 9.78124 8.19787 10.5053 8.29018C11.0592 8.35942 11.6102 8.42 12.1035 8.76329C12.4006 8.971 12.7814 9.05466 13.1161 9.21044C13.3353 9.3114 13.543 9.43545 13.7478 9.56238C13.7998 9.59411 13.8488 9.68066 13.8488 9.73836C13.843 9.94606 13.5863 10.2172 13.3699 10.2403C13.2142 10.2576 13.194 10.3297 13.2372 10.4567C13.2545 10.5028 13.2632 10.5548 13.2747 10.6038C13.2603 10.6211 13.2488 10.6355 13.2344 10.6528C13.142 10.6067 13.0266 10.5807 12.9574 10.5086C12.7814 10.3326 12.591 10.3586 12.4266 10.5374C12.2968 10.6759 12.2016 10.8548 12.1208 11.0279C12.0631 11.1548 12.1035 11.3019 12.2535 11.3394C12.692 11.4548 13.1593 11.5327 13.5171 11.1923C13.944 10.7855 14.3104 10.3153 14.6998 9.87106C14.8095 9.74412 14.7921 9.61431 14.6768 9.49315C14.4344 9.24217 14.195 8.98542 13.9556 8.73156C13.8488 8.61905 13.7392 8.50943 13.6325 8.39981C13.7248 8.38827 13.7882 8.40846 13.843 8.44308C14.5296 8.88157 15.2162 9.31429 15.8941 9.76432C16.0845 9.89125 16.2317 10.073 16.2374 10.3297C16.2374 10.4451 16.3182 10.4971 16.4134 10.4567C16.6528 10.3557 16.6903 10.5288 16.7365 10.6817C16.7567 10.7509 16.7596 10.8288 16.7654 10.9009C16.7827 11.1115 16.9125 11.2298 17.1086 11.2269C17.3192 11.224 17.5385 11.1981 17.7375 11.1317C18.0404 11.0336 18.1068 10.8144 17.8933 10.5721L17.9164 10.5865ZM11.0073 4.37839C10.788 4.3005 10.5688 4.21972 10.2717 4.11299C10.6034 3.8072 10.8919 3.54179 11.2006 3.2562C11.3419 3.51006 11.4573 3.71488 11.5698 3.9197C11.5814 3.94278 11.5987 3.96874 11.5958 3.99471C11.5871 4.12164 11.1284 4.41877 11.0044 4.37839H11.0073Z" fill="#8162C2"/>
<path d="M12.5593 2.47153C13.0699 2.47153 13.468 2.07919 13.4738 1.56858C13.4767 1.06086 13.0815 0.651215 12.5766 0.64833C12.0631 0.645446 11.642 1.06086 11.6449 1.56281C11.6506 2.06765 12.0545 2.47153 12.5593 2.47153V2.47153Z" fill="#8162C2"/>
</svg>
