<svg width="20" height="20" viewBox="0 0 20 20" fill="none" xmlns="http://www.w3.org/2000/svg">
<path d="M16.92 6.5H17.7886L17.3524 5.7489C16.3232 3.97675 14.6905 2.63434 12.7528 1.96723L11.5466 1.55199L12.1493 2.67624C12.7336 3.76616 13.1823 4.92353 13.4852 6.1225L13.5806 6.5H13.97H16.92ZM10.4112 1.75557L10 1.16104L9.58878 1.75557C8.72986 2.99739 8.05664 4.37461 7.61118 5.85602L7.41753 6.5H8.09H11.91H12.5825L12.3888 5.85602C11.9434 4.37461 11.2701 2.99739 10.4112 1.75557ZM1.77493 12.1213L1.86961 12.5H2.26H5.64H6.20427L6.13637 11.9398C6.05746 11.2888 6 10.6512 6 10C6 9.34875 6.05746 8.71116 6.13637 8.06017L6.20427 7.5H5.64H2.26H1.86961L1.77493 7.87873C1.60698 8.55052 1.5 9.26173 1.5 10C1.5 10.7383 1.60698 11.4495 1.77493 12.1213ZM3.08 13.5H2.21344L2.64712 14.2502C3.67342 16.0256 5.30784 17.3694 7.24819 18.0331L8.45772 18.4468L7.84985 17.3222C7.27061 16.2506 6.82496 15.0892 6.51438 13.876L6.41812 13.5H6.03H3.08ZM6.03 6.5H6.41937L6.51476 6.1225C6.81774 4.92353 7.26638 3.76616 7.85067 2.67624L8.45159 1.5553L7.24819 1.96691C5.30784 2.63058 3.67342 3.97435 2.64712 5.74977L2.21344 6.5H3.08H6.03ZM9.58878 18.2444L10 18.839L10.4112 18.2444C11.2701 17.0026 11.9434 15.6254 12.3888 14.144L12.5825 13.5H11.91H8.09H7.41753L7.61118 14.144C8.05664 15.6254 8.72986 17.0026 9.58878 18.2444ZM12.34 12.5H12.7764L12.8354 12.0676C12.9266 11.3991 13 10.7133 13 10C13 9.28703 12.9267 8.59139 12.8353 7.93142L12.7755 7.5H12.34H7.66H7.22446L7.16472 7.93142C7.07334 8.59139 7 9.28703 7 10C7 10.7133 7.07343 11.3991 7.16458 12.0676L7.22355 12.5H7.66H12.34ZM12.1501 17.3222L11.5405 18.4501L12.7528 18.0328C14.6905 17.3657 16.3232 16.0233 17.3524 14.2511L17.7886 13.5H16.92H13.97H13.5819L13.4856 13.876C13.175 15.0892 12.7294 16.2506 12.1501 17.3222ZM13.8636 11.9398L13.7957 12.5H14.36H17.74H18.1304L18.2251 12.1213C18.393 11.4495 18.5 10.7383 18.5 10C18.5 9.26173 18.393 8.55052 18.2251 7.87873L18.1304 7.5H17.74H14.36H13.7957L13.8636 8.06017C13.9425 8.71116 14 9.34875 14 10C14 10.6512 13.9425 11.2888 13.8636 11.9398ZM0.5 10C0.5 4.75549 4.74679 0.5 9.99 0.5C15.2442 0.5 19.5 4.75647 19.5 10C19.5 15.2435 15.2442 19.5 9.99 19.5C4.74679 19.5 0.5 15.2445 0.5 10Z" fill="#29A013" stroke="#8162C2"/>
</svg>
