<svg width="20" height="10" viewBox="0 0 20 10" fill="none" xmlns="http://www.w3.org/2000/svg">
<path d="M17.9192 8.14414V4.67179C17.7897 4.72822 17.6802 4.76474 17.5806 4.81785C16.8768 5.18302 16.1764 5.55482 15.4726 5.91998C14.9514 6.18887 14.563 5.95649 14.5597 5.36892C14.553 4.58548 14.5597 3.80204 14.553 3.0186C14.5497 2.44099 14.251 2.14886 13.6634 2.14886C11.6716 2.14886 9.6798 2.14886 7.68469 2.14886C7.57846 2.14886 7.47223 2.14886 7.36932 2.14886V1.08657C7.47887 1.07993 7.59506 1.06665 7.71125 1.06665C9.713 1.06665 11.7147 1.06665 13.7165 1.06665C14.8452 1.06665 15.6353 1.86005 15.6485 2.99869C15.6552 3.49995 15.6485 4.00454 15.6485 4.59212C16.8071 3.99126 17.8959 3.4236 19.018 2.83934V9.97659C18.6163 9.77077 18.2478 9.58155 17.8827 9.39233C16.9532 8.90766 16.0237 8.41968 15.0908 7.93169C15.0112 7.89185 14.9348 7.8487 14.8585 7.7989C14.5696 7.61632 14.48 7.32751 14.6261 7.06194C14.7721 6.79305 15.0975 6.70674 15.3996 6.86276C16.1465 7.24784 16.8934 7.63956 17.6403 8.02796C17.7167 8.06779 17.7997 8.09435 17.9125 8.14082L17.9192 8.14414Z" fill="#8162C2"/>
<path d="M13.4409 8.49273H10.9246V4.19379H13.4442V4.93739H11.8641V5.83369H13.4343V6.61713H11.8608V7.71594H13.4409V8.49273V8.49273Z" fill="#8162C2"/>
<path d="M7.38589 4.18712C7.72782 5.29588 8.06642 6.39801 8.39175 7.46361C8.72371 6.40133 9.07228 5.29256 9.41752 4.18048H10.4333C10.2508 4.67511 10.0748 5.15314 9.89887 5.62785C9.58018 6.49096 9.24822 7.35075 8.94281 8.21718C8.86314 8.43959 8.76687 8.5259 8.52453 8.51594C7.95023 8.49603 7.95355 8.5093 7.75437 7.96156C7.33278 6.80964 6.90454 5.65773 6.47963 4.50913C6.44311 4.40954 6.40992 4.30663 6.36676 4.1838H7.38589V4.18712Z" fill="#8162C2"/>
<path d="M3.43883 1.06999V2.14556C3.19317 2.14556 2.94088 2.14556 2.68859 2.14556C2.45953 2.14556 2.23379 2.14556 2.00474 2.14556C1.44372 2.1522 1.13831 2.45097 1.13499 3.00867C1.12835 3.81202 1.13499 4.61538 1.13499 5.41541C1.13499 5.6843 1.03208 5.9034 0.766509 5.99967C0.524174 6.08598 0.305077 6.01627 0.162332 5.80713C0.0893 5.7009 0.0461445 5.55152 0.0428249 5.42205C0.0328659 4.5689 0.0262266 3.71575 0.0428249 2.86592C0.0594231 1.90654 0.839541 1.10983 1.79892 1.07331C2.34002 1.05339 2.88445 1.06999 3.43883 1.06999Z" fill="#8162C2"/>
<path d="M5.41735 0.243382C6.18419 0.256661 6.80164 0.887394 6.7784 1.63764C6.75849 2.38124 6.12443 2.98209 5.38083 2.96882C4.61067 2.95554 4.02641 2.33808 4.04633 1.55796C4.06625 0.824321 4.6837 0.230104 5.41735 0.243382Z" fill="#8162C2"/>
<path d="M2.85457 7.72255C3.29608 7.72255 3.68116 7.73251 4.06624 7.71923C4.28202 7.70927 4.37829 7.76903 4.35505 7.99808C4.33845 8.15411 4.35505 8.31013 4.35505 8.48939H1.9483V4.19708H2.85457V7.72255Z" fill="#8162C2"/>
<path d="M4.97583 4.18381H5.84226V8.48607H4.97583V4.18381V4.18381Z" fill="#8162C2"/>
</svg>
