<svg width="21" height="21" viewBox="0 0 21 21" fill="none" xmlns="http://www.w3.org/2000/svg">
<path d="M2.36011 15.7778C2.58947 15.2671 2.83614 14.7175 3.07849 14.1679C4.55419 10.8487 6.02556 7.53378 7.50559 4.21454C7.57916 4.05442 7.56185 3.95921 7.43635 3.8467C7.30652 3.73418 7.18968 3.60868 7.0685 3.48318C6.64873 3.05475 6.63575 2.46187 7.02523 2.06807C7.41904 1.67426 8.01624 1.69157 8.43601 2.11567C10.4224 4.09769 12.4044 6.08405 14.3907 8.0704C15.9617 9.64131 17.5369 11.2122 19.1078 12.7874C19.5016 13.1856 19.5362 13.7482 19.1987 14.142C18.8395 14.5617 18.2163 14.6007 17.8009 14.2199C17.6278 14.0641 17.472 13.8867 17.2989 13.7309C17.2556 13.6919 17.1604 13.6573 17.1128 13.6746C16.2083 14.0684 15.3082 14.4709 14.4384 14.856C14.5985 15.2455 14.7932 15.6133 14.8971 16.0028C15.4337 18.0195 13.9104 20.0231 11.8288 20.0751C10.8897 20.0967 10.0848 19.7765 9.41405 19.123C8.97696 18.6946 8.55286 18.2575 8.11578 17.8334C8.06817 17.7901 7.96431 17.7468 7.91671 17.7685C7.08149 18.132 6.25059 18.4998 5.45432 18.8547C5.4976 19.1144 5.58415 19.3524 5.56684 19.5861C5.54087 19.9626 5.31584 20.2309 4.95665 20.365C4.59746 20.4992 4.26424 20.4343 3.97862 20.1833C3.75359 19.9842 3.54586 19.7635 3.33381 19.5471C2.58947 18.8071 1.84946 18.0628 1.10512 17.3184C0.810842 17.0241 0.724291 16.6693 0.867101 16.2798C1.00558 15.8946 1.29986 15.6739 1.70665 15.661C1.91004 15.6523 2.11777 15.7302 2.36444 15.7735L2.36011 15.7778ZM9.85978 16.8986C10.2363 17.2578 10.5609 17.6257 10.9417 17.9199C11.5086 18.357 12.3395 18.2229 12.7895 17.6733C13.2483 17.1107 13.2007 16.2841 12.6684 15.7951C12.6208 15.7518 12.5039 15.7302 12.4433 15.7562C11.5951 16.124 10.7513 16.5005 9.85978 16.8986Z" fill="#8162C2"/>
<path d="M13.4127 4.7598C12.6727 4.7598 12.2097 4.13231 12.452 3.53078C12.8372 2.57871 13.2526 1.63963 13.6767 0.704874C13.8758 0.263462 14.4124 0.0903597 14.8538 0.280773C15.2909 0.471186 15.5289 0.981838 15.3472 1.42758C14.9577 2.37964 14.5509 3.32305 14.1311 4.25781C13.984 4.59103 13.6854 4.74682 13.4171 4.75548L13.4127 4.7598Z" fill="#8162C2"/>
<path d="M20.9946 6.82839C20.986 7.12267 20.8302 7.41262 20.4883 7.55975C19.5795 7.96222 18.6707 8.36035 17.7576 8.74551C17.2945 8.94025 16.7709 8.71089 16.5762 8.25216C16.3771 7.79344 16.5718 7.26115 17.0349 7.05776C17.9307 6.65962 18.8308 6.27014 19.7353 5.89797C20.3498 5.64264 21.0033 6.09704 20.9989 6.82839H20.9946Z" fill="#8162C2"/>
<path d="M17.658 2.69988C17.9739 2.69988 18.3115 2.92058 18.4457 3.26679C18.5841 3.63031 18.5452 3.97218 18.2639 4.25348C17.6061 4.91992 16.944 5.58637 16.2732 6.24416C15.9097 6.59902 15.3774 6.60334 15.0096 6.27878C14.6504 5.96286 14.5898 5.41759 14.8754 5.03244C14.936 4.95021 15.0139 4.88097 15.0875 4.81173C15.702 4.19722 16.3208 3.58703 16.9353 2.96819C17.1214 2.7821 17.3378 2.69122 17.658 2.69555V2.69988Z" fill="#8162C2"/>
</svg>
