<svg width="15" height="16" viewBox="0 0 15 16" fill="none" xmlns="http://www.w3.org/2000/svg">
<path d="M10.6676 10.9243C10.4918 8.49607 7.00671 5.0159 4.74436 4.99115C4.4102 7.40944 3.03151 8.78814 0.573608 9.13715C0.930041 10.6619 1.66023 11.9614 2.76171 13.0356C3.81368 14.0604 5.06366 14.751 6.54137 15.0802C6.62553 13.9465 7.03642 12.9886 7.81364 12.2064C8.59828 11.4168 9.57104 11.0158 10.6676 10.9243ZM7.00176 10.7782C7.01414 10.7906 7.02899 10.8005 7.04137 10.8129C7.50671 11.2832 7.50176 11.2782 7.02404 11.7337C6.89285 11.8574 6.8087 11.8351 6.70474 11.7188C6.6082 11.6124 6.49682 11.5158 6.40028 11.4069C6.30128 11.2955 6.21464 11.2782 6.10573 11.3995C6.01415 11.5035 5.91019 11.5926 5.81118 11.6891C5.77405 11.7238 5.7394 11.7906 5.6998 11.7931C5.40029 11.8104 5.32109 11.5183 5.14287 11.3673C5.10327 11.3351 5.11812 11.1792 5.16267 11.1173C5.25178 10.9936 5.37059 10.8921 5.48693 10.7881C5.59831 10.6891 5.61316 10.6124 5.49435 10.4985C5.33841 10.3525 5.20723 10.1817 5.04881 10.006C4.80624 10.2312 4.60327 10.4218 4.4102 10.6C4.37308 10.5901 4.36318 10.5876 4.35822 10.5827C3.74932 10.1 3.74684 10.0926 4.24931 9.54804C4.28892 9.50348 4.32852 9.45645 4.43001 9.34012C4.26664 9.20646 4.10328 9.07032 3.93744 8.93913C3.8112 8.83765 3.79635 8.75596 3.92754 8.62725C4.38793 8.16934 4.3805 8.16439 4.85327 8.62478C4.90277 8.67181 4.95723 8.71389 5.05624 8.79557C5.21218 8.6223 5.36069 8.46636 5.4993 8.303C5.59584 8.18666 5.67752 8.20151 5.779 8.29805C5.93494 8.44656 6.10078 8.5827 6.28147 8.74111C6.04385 8.99111 5.85078 9.1916 5.59089 9.46635C5.78395 9.62477 5.95722 9.77823 6.14534 9.91437C6.19484 9.9515 6.29137 9.9317 6.36563 9.92179C6.39038 9.91932 6.40771 9.86981 6.42999 9.84506C6.91018 9.36239 6.94978 9.36239 7.37057 9.91189C7.4077 9.9614 7.40275 10.0926 7.36315 10.1421C7.25919 10.2758 7.128 10.3921 7.00176 10.5084C6.89533 10.605 6.90275 10.6916 7.00671 10.7807L7.00176 10.7782Z" fill="#8162C2"/>
<path d="M10.8954 12.5703C10.8905 12.3228 10.8533 12.0753 10.8311 11.8352C9.05384 11.7461 7.35336 13.4366 7.44495 15.1965C7.4895 15.2089 7.539 15.2336 7.58851 15.2336C8.29147 15.2485 8.99444 15.3005 9.69245 15.2633C10.388 15.2262 10.8731 14.6718 10.8954 13.9738C10.9103 13.5059 10.9053 13.0356 10.8954 12.5678V12.5703Z" fill="#8162C2"/>
<path d="M3.80638 4.82285C3.69994 4.808 3.59104 4.78325 3.47965 4.78325C2.88065 4.77335 2.28164 4.7585 1.68264 4.76592C0.93512 4.77582 0.393047 5.308 0.378195 6.05551C0.365819 6.65452 0.383146 7.25352 0.393047 7.85253C0.393047 7.97134 0.422749 8.08767 0.437601 8.19906C2.25936 8.32282 3.95737 6.48125 3.80638 4.82285Z" fill="#8162C2"/>
<path d="M8.15271 4.4763C8.0735 4.47878 7.94974 4.53076 7.92994 4.58769C7.83588 4.86739 7.74182 5.14709 7.65271 5.42926C8.37052 5.91441 9.09577 6.54807 9.7616 7.37479C10.0834 7.14459 10.4002 6.9144 10.717 6.67678C10.7789 6.62975 10.8235 6.49361 10.8037 6.42183C10.6354 5.85253 10.4423 5.29313 10.2715 4.72383C10.2096 4.51838 10.0958 4.46145 9.89526 4.47383C9.62794 4.49115 9.35814 4.47878 9.08834 4.47878C9.08834 4.47878 9.08834 4.4763 9.08834 4.47383C8.77646 4.47383 8.46458 4.4664 8.15271 4.47878V4.4763Z" fill="#8162C2"/>
<path d="M9.01173 0.723842C6.84344 0.753545 4.96969 2.07779 4.19495 3.99609C4.71722 4.09757 5.36325 4.27331 6.06622 4.57034C6.11572 4.40945 6.17017 4.25104 6.2271 4.09262C6.28403 3.93173 6.2271 3.8649 6.13057 3.79064C5.99443 3.68668 5.85582 3.5852 5.70978 3.49114C5.59097 3.41441 5.59097 3.34015 5.67513 3.23619C6.16522 2.63471 6.7667 2.19412 7.48699 1.907C7.64293 1.84512 7.73947 1.8674 7.75679 2.05304C7.75679 2.07036 7.76174 2.08769 7.76669 2.10502C7.88715 2.4961 8.1553 2.69164 8.57114 2.69164C9.00431 2.69164 9.43994 2.66937 9.87311 2.69412C10.1231 2.70897 10.2295 2.60996 10.2964 2.38967C10.4647 1.83027 10.482 1.80304 11.0018 2.05304C11.628 2.35501 12.1676 2.77828 12.5761 3.38718C12.378 3.53075 12.1949 3.67183 12.0043 3.80054C11.883 3.88223 11.8657 3.96391 11.9152 4.105C12.1058 4.65945 12.2815 5.21885 12.4572 5.77577C12.5067 5.93171 12.581 6.03072 12.7691 6.01834C12.982 6.00349 13.1973 6.01587 13.4251 6.01587C13.482 6.64953 13.3062 7.19903 13.0835 7.73368C12.9944 7.94654 12.8607 8.13961 12.7543 8.34753C12.6751 8.49852 12.581 8.48862 12.4622 8.39951C12.331 8.3005 12.2072 8.18417 12.0637 8.11238C11.977 8.07031 11.8261 8.05793 11.7543 8.10496C11.4152 8.33763 11.0835 8.58268 10.7493 8.82525C11.0538 9.36237 11.336 9.95643 11.586 10.6148C13.2468 9.7188 14.3508 7.95397 14.3359 5.96141C14.3409 3.10006 11.9894 0.686714 9.01173 0.723842Z" fill="#8162C2"/>
</svg>
